<?xml version="1.0" encoding="utf-8"?>
<!-- Generator: Adobe Illustrator 27.5.0, SVG Export Plug-In . SVG Version: 6.00 Build 0)  -->
<svg version="1.1" xmlns="http://www.w3.org/2000/svg" xmlns:xlink="http://www.w3.org/1999/xlink" x="0px" y="0px"
	 viewBox="0 0 750 500" style="enable-background:new 0 0 750 500;" xml:space="preserve">
<g id="BACKGROUND">
	<rect style="fill:#FFFBFA;" width="750" height="500"/>
</g>
<g id="OBJECTS">
	<rect style="fill:#46E0C2;" width="750" height="101"/>
	<g>
		<path style="fill:#FFF3F0;stroke:#74D6C6;stroke-width:5;stroke-miterlimit:10;" d="M79.983,263.693V145.865
			c0-12.438,10.083-22.52,22.52-22.52h117.829c12.438,0,22.52,10.083,22.52,22.52v117.829c0,12.438-10.083,22.52-22.52,22.52
			H102.503C90.066,286.214,79.983,276.131,79.983,263.693z"/>
		<g>
			<defs>
				<path id="SVGID_1_" d="M242.852,144.424v120.71c0,11.644-9.435,21.079-21.079,21.079h-60.355V123.345h60.355
					C233.417,123.345,242.852,132.78,242.852,144.424z"/>
			</defs>
			<clipPath id="SVGID_00000107547615357506655050000015292182031792858781_">
				<use xlink:href="#SVGID_1_"  style="overflow:visible;"/>
			</clipPath>
			<g style="clip-path:url(#SVGID_00000107547615357506655050000015292182031792858781_);">
				<path style="fill:#F7CA89;" d="M161.418,171.747"/>
				<g>
					<g>
						<path style="fill:#F4B569;" d="M140.205,172.937c-1.96,0.63-3.97,1.41-5.97,2.32c-8.15,3.69-16.3,9.55-21.72,16.35
							c-1.74,2.17-3.2,4.44-4.29,6.77c-0.05-0.12,0.02-0.29-0.13,0.46c-3.37-5.16-4.38-11.49-4.86-17.64
							c-0.71-9-0.41-18.32,3.04-26.67c0.77-1.85,1.95-3.84,3.92-4.19c1.11-0.19,2.23,0.2,3.27,0.62
							C124.355,155.297,133.845,163.087,140.205,172.937z"/>
						<path style="fill:#FF99A8;" d="M134.235,175.257c-8.15,3.69-16.3,9.55-21.72,16.35c-0.11-0.22-0.22-0.43-0.34-0.64
							c-5.68-9.96-3.91-30.64-1.12-32.56c0.67-0.46,1.66-0.62,2.37-0.22c1.96,1.11,2.5,3.68,2.52,6.01
							c0.23-2.28,1.78-3.56,4.41-3.11c0.82,0.14,1.61,0.46,2.31,0.9c2.33,1.48,3.67,3.82,5.18,6
							C129.685,170.647,131.835,173.097,134.235,175.257z"/>
					</g>
					<g>
						<path style="fill:#F4B569;" d="M182.63,172.937c1.96,0.63,3.97,1.41,5.97,2.32c8.15,3.69,16.3,9.55,21.72,16.35
							c1.74,2.17,3.2,4.44,4.29,6.77c0.05-0.12-0.02-0.29,0.13,0.46c3.37-5.16,4.38-11.49,4.86-17.64c0.71-9,0.41-18.32-3.04-26.67
							c-0.77-1.85-1.95-3.84-3.92-4.19c-1.11-0.19-2.23,0.2-3.27,0.62C198.48,155.297,188.99,163.087,182.63,172.937z"/>
						<path style="fill:#EA7A8D;" d="M188.6,175.257c8.15,3.69,16.3,9.55,21.72,16.35c0.11-0.22,0.22-0.43,0.34-0.64
							c5.68-9.96,3.91-30.64,1.12-32.56c-0.67-0.46-1.66-0.62-2.37-0.22c-1.96,1.11-2.5,3.68-2.52,6.01
							c-0.23-2.28-1.78-3.56-4.41-3.11c-0.82,0.14-1.61,0.46-2.31,0.9c-2.33,1.48-3.67,3.82-5.18,6
							C193.15,170.647,191,173.097,188.6,175.257z"/>
					</g>
				</g>
				<path style="fill:#F7CA89;" d="M219.527,211.037c-0.43-5.15-1.8-10.17-3.35-15.1c-2.89-9.21-11.11-37.31-56.37-37.66
					c-38.02-0.3-49.07,24.78-53.15,37.66c-1.56,4.93-2.93,9.95-3.35,15.1c-0.6,7.22,0.98,14.33,4.15,20.74
					c4.25,8.64,11.38,16.02,19.94,20.72c16.26,8.92,50.84,9.14,68.04,0c8.62-4.58,15.74-11.96,19.97-20.63
					C218.567,225.427,220.127,218.267,219.527,211.037z"/>
				<path style="fill:#F7CA89;" d="M161.468,171.747c-0.07,0.04-0.1,0.03-0.1-0.05C161.398,171.717,161.438,171.727,161.468,171.747
					z"/>
				<path style="fill:#F5E3C4;" d="M215.393,231.867c-4.23,8.67-11.35,16.05-19.97,20.63c-17.2,9.14-51.78,8.92-68.04,0
					c-8.56-4.7-15.69-12.08-19.94-20.72c0.16-1.3,0.58-2.54,1.35-3.59c1.98-2.7,5.77-3.41,9.09-2.99c3.33,0.42,6.48,1.74,9.79,2.23
					c4.38,0.66,9.07-0.24,12.62-2.9c3.13-2.34,5.18-5.85,8.07-8.47c3.52-3.19,8.3-4.95,13.05-4.84c4.74-0.11,9.52,1.65,13.04,4.84
					c2.9,2.62,4.95,6.13,8.08,8.47c3.54,2.66,8.23,3.56,12.61,2.9c3.31-0.49,6.47-1.81,9.79-2.23c3.32-0.42,7.11,0.29,9.09,2.99
					C214.813,229.257,215.223,230.537,215.393,231.867z"/>
				<g>
					<g>
						<circle style="fill:#261816;" cx="135.128" cy="213.538" r="4.25"/>
						<circle style="fill:#261816;" cx="187.707" cy="213.538" r="4.25"/>
					</g>
					<path style="fill:#261816;" d="M168.852,211.257c0,0.11-0.01,0.21-0.02,0.32c-0.04,0.28-0.1,0.55-0.2,0.81
						c-0.03,0.08-0.07,0.17-0.11,0.25c-0.07,0.21-0.18,0.41-0.3,0.59c-0.06,0.1-0.13,0.19-0.2,0.29c-0.01,0-0.01,0.01-0.01,0.01
						c-0.35,0.53-0.71,0.97-0.98,1.22c-1.55,1.51-3.45,2.96-5.61,2.86h-0.01c-2.16,0.1-4.05-1.35-5.61-2.86
						c-0.29-0.28-0.71-0.79-1.09-1.4c-0.02-0.02-0.03-0.03-0.03-0.05c-0.03-0.02-0.04-0.05-0.06-0.07
						c-0.12-0.18-0.21-0.37-0.29-0.57c-0.03-0.07-0.06-0.14-0.09-0.22c-0.03-0.07-0.06-0.15-0.08-0.22
						c-0.01-0.01-0.01-0.01-0.01-0.01c-0.02-0.08-0.05-0.16-0.07-0.25c-0.03-0.06-0.04-0.12-0.04-0.18
						c-0.02-0.09-0.03-0.18-0.04-0.26c-0.02-0.21-0.03-0.43,0.01-0.64c0.02-0.12,0.05-0.23,0.08-0.35v-0.01
						c0.07-0.25,0.17-0.5,0.34-0.71c0-0.03,0.02-0.05,0.04-0.07c0.02-0.02,0.04-0.04,0.06-0.06c0.66-0.88,1.82-1.38,2.92-1.66
						c1.29-0.32,2.63-0.47,3.97-0.43c1.34-0.04,2.67,0.11,3.97,0.43c1.09,0.28,2.25,0.78,2.92,1.66c0.02,0.02,0.04,0.04,0.06,0.06
						c0.13,0.16,0.23,0.34,0.29,0.53c0.03,0.09,0.06,0.17,0.09,0.26c0.03,0.11,0.06,0.22,0.07,0.33
						C168.852,210.987,168.852,211.127,168.852,211.257z"/>
					<g>
						<path style="fill:none;stroke:#261816;stroke-width:2;stroke-miterlimit:10;" d="M154.134,219.848
							c0.436,1.624,2.044,2.854,3.726,2.85c0.508-0.001,1.018-0.105,1.474-0.33c2.487-1.227,2.056-4.176,2.056-6.359"/>
						<path style="fill:none;stroke:#261816;stroke-width:2;stroke-miterlimit:10;" d="M168.702,219.848
							c-0.436,1.624-2.044,2.854-3.725,2.85c-0.508-0.001-1.019-0.105-1.474-0.33c-2.487-1.227-2.056-4.176-2.056-6.359"/>
					</g>
					<g>
						<ellipse style="fill:#FF99A8;" cx="130.878" cy="223.697" rx="7.25" ry="5.5"/>
						<ellipse style="fill:#FF99A8;" cx="191.957" cy="223.697" rx="7.25" ry="5.5"/>
					</g>
				</g>
			</g>
		</g>
		<g>
			<defs>
				<path id="SVGID_00000158712189773844326410000016107767914821939863_" d="M79.983,144.424v120.71
					c0,11.644,9.435,21.079,21.079,21.079h60.355V123.345h-60.355C89.419,123.345,79.983,132.78,79.983,144.424z"/>
			</defs>
			<clipPath id="SVGID_00000113333369502528537970000017051837137426472360_">
				<use xlink:href="#SVGID_00000158712189773844326410000016107767914821939863_"  style="overflow:visible;"/>
			</clipPath>
			<g style="clip-path:url(#SVGID_00000113333369502528537970000017051837137426472360_);">
				<g>
					<path style="fill:#D15E6F;" d="M195.626,173.735c2.14,2.9,5.75,7.19,8.57,10.01c0.58,0.58,1.12,1.09,1.61,1.52
						c0.03-0.16,0.07-0.32,0.1-0.48c0.42-2.09,0.84-4.17,1.27-6.26c0.08-0.43,0.19-0.89,0.52-1.17c0.48-0.42,1.21-0.29,1.83-0.17
						c5.3,1.06,10.8,2.11,12.73-1.66c0.1-0.19,0.18-0.38,0.23-0.58c0.09-0.27,0.15-0.54,0.15-0.82c0.02-0.07,0.02-0.14,0.02-0.21
						v-0.19l-0.03-0.39c0-0.01,0-0.01,0-0.02c-0.06-0.43-0.21-0.85-0.44-1.24c-0.62-1.04-1.61-1.81-2.54-2.6
						c-2.48-2.09-4.71-4.48-6.62-7.1c-1.14-1.56-2.19-3.22-3.64-4.51c-0.94-0.83-2.12-1.58-3.33-1.85
						c-0.03-0.01-0.06-0.01-0.09-0.02c-0.63-0.12-1.27-0.11-1.88,0.09C198.096,158.055,201.366,169.505,195.626,173.735z"/>
					<path style="fill:#D15E6F;" d="M127.21,173.735c-2.14,2.9-5.75,7.19-8.57,10.01c-0.58,0.58-1.12,1.09-1.61,1.52
						c-0.03-0.16-0.07-0.32-0.1-0.48c-0.42-2.09-0.84-4.17-1.27-6.26c-0.08-0.43-0.19-0.89-0.52-1.17
						c-0.48-0.42-1.21-0.29-1.83-0.17c-5.3,1.06-10.8,2.11-12.73-1.66c-0.1-0.19-0.18-0.38-0.23-0.58
						c-0.09-0.27-0.15-0.54-0.15-0.82c-0.02-0.07-0.02-0.14-0.02-0.21v-0.19l0.03-0.39c0-0.01,0-0.01,0-0.02
						c0.06-0.43,0.21-0.85,0.44-1.24c0.62-1.04,1.61-1.81,2.54-2.6c2.48-2.09,4.71-4.48,6.62-7.1c1.14-1.56,2.19-3.22,3.64-4.51
						c0.94-0.83,2.12-1.58,3.33-1.85c0.03-0.01,0.06-0.01,0.09-0.02c0.63-0.12,1.27-0.11,1.88,0.09
						C124.74,158.055,121.47,169.505,127.21,173.735z"/>
				</g>
				<path style="fill:#FF99A8;" d="M219.527,207.044c-0.43-5.15-1.8-10.17-3.35-15.1c-2.89-9.21-11.11-37.31-56.37-37.66
					c-38.02-0.3-49.07,24.78-53.15,37.66c-1.56,4.93-2.93,9.95-3.35,15.1c-0.6,7.22,0.98,14.33,4.15,20.74
					c4.25,8.64,11.38,16.02,19.94,20.72c16.26,8.92,50.84,9.14,68.04,0c8.62-4.58,15.74-11.96,19.97-20.63
					C218.567,221.434,220.127,214.274,219.527,207.044z"/>
				<g>
					<circle style="fill:#261816;" cx="135.128" cy="209.545" r="4.25"/>
					<circle style="fill:#261816;" cx="187.707" cy="209.545" r="4.25"/>
				</g>
				<g>
					<ellipse style="fill:#EA7A8D;" cx="130.878" cy="219.704" rx="7.25" ry="5.5"/>
					<ellipse style="fill:#EA7A8D;" cx="191.957" cy="219.704" rx="7.25" ry="5.5"/>
				</g>
				<g>
					<path style="fill:#EA7A8D;" d="M176.483,227.326c-2.25,3.51-6.84,4.54-10.97,5.12c-1.17,0.16-2.64,0.25-4.09,0.24
						c-1.46,0.01-2.93-0.08-4.1-0.24c-4.13-0.58-8.72-1.61-10.97-5.12c-1.96-3.04-1.51-7.03-0.51-10.51
						c0.53-1.86,1.23-3.73,2.44-5.25c1.42-1.8,3.341-3.06,5.55-3.71c4.495-1.324,10.378-1.692,15.17,0
						c2.171,0.767,4.13,1.91,5.55,3.71c1.21,1.52,1.91,3.39,2.44,5.25C177.993,220.296,178.443,224.286,176.483,227.326z"/>
					<g>
						<ellipse style="fill:#261816;" cx="155.043" cy="219.535" rx="3" ry="3.5"/>
						<ellipse style="fill:#261816;" cx="167.793" cy="219.535" rx="3" ry="3.5"/>
					</g>
				</g>
				<g>
					<path style="fill:#EA7A8D;" d="M118.64,180.685c-0.06,0.79-0.22,1.57-0.51,2.36c-0.22,0.6-0.6,1.23-1.2,1.74
						c-0.51,0.43-1.18,0.77-2.06,0.93c-1.84,0.32-3.75-0.32-5.22-1.03c-5.1-2.44-8.49-5.99-9.3-9.74c-0.03-0.1-0.05-0.19-0.07-0.29
						c-0.03-0.17-0.06-0.35-0.08-0.53c-0.01-0.09-0.02-0.18-0.02-0.27v-0.13l0.03-0.39c0-0.01,0-0.01,0-0.02
						c0.06-0.43,0.21-0.85,0.44-1.24c0.62-1.04,1.61-1.81,2.54-2.6c2.48-2.09,4.71-4.48,6.62-7.1c1.14-1.56,2.19-3.22,3.64-4.51
						c0.94-0.83,2.12-1.58,3.33-1.85c-3.26,2.68,0.23,13.65,1.03,17.95C118.23,176.195,118.81,178.455,118.64,180.685z"/>
					<path style="fill:#EA7A8D;" d="M204.196,180.685c0.06,0.79,0.22,1.57,0.51,2.36c0.22,0.6,0.6,1.23,1.2,1.74
						c0.51,0.43,1.18,0.77,2.06,0.93c1.84,0.32,3.75-0.32,5.22-1.03c5.1-2.44,8.49-5.99,9.3-9.74c0.03-0.1,0.05-0.19,0.07-0.29
						c0.03-0.17,0.06-0.35,0.08-0.53c0.01-0.09,0.02-0.18,0.02-0.27v-0.13l-0.03-0.39c0-0.01,0-0.01,0-0.02
						c-0.06-0.43-0.21-0.85-0.44-1.24c-0.62-1.04-1.61-1.81-2.54-2.6c-2.48-2.09-4.71-4.48-6.62-7.1c-1.14-1.56-2.19-3.22-3.64-4.51
						c-0.94-0.83-2.12-1.58-3.33-1.85c3.26,2.68-0.23,13.65-1.03,17.95C204.606,176.195,204.026,178.455,204.196,180.685z"/>
				</g>
			</g>
		</g>
		
			<line style="fill:none;stroke:#BCE8E1;stroke-width:5;stroke-linecap:round;stroke-miterlimit:10;" x1="161.418" y1="114.88" x2="161.418" y2="294.678"/>
	</g>
	<g>
		<path style="fill:#FFF3F0;stroke:#74D6C6;stroke-width:5;stroke-miterlimit:10;" d="M293.566,263.693V145.865
			c0-12.438,10.083-22.52,22.52-22.52h117.829c12.438,0,22.52,10.083,22.52,22.52v117.829c0,12.438-10.083,22.52-22.52,22.52
			H316.086C303.648,286.214,293.566,276.131,293.566,263.693z"/>
		<g>
			<defs>
				<path id="SVGID_00000060744616084638489710000015706785824327376549_" d="M293.566,144.424v120.71
					c0,11.644,9.435,21.079,21.079,21.079H375V123.345h-60.355C303.001,123.345,293.566,132.78,293.566,144.424z"/>
			</defs>
			<clipPath id="SVGID_00000048486102556586911950000007465194883521429695_">
				<use xlink:href="#SVGID_00000060744616084638489710000015706785824327376549_"  style="overflow:visible;"/>
			</clipPath>
			<g style="clip-path:url(#SVGID_00000048486102556586911950000007465194883521429695_);">
				<path style="fill:#F7CA89;" d="M375,171.747"/>
				<g>
					<g>
						<path style="fill:#F4B569;" d="M353.788,172.937c-1.96,0.63-3.97,1.41-5.97,2.32c-8.15,3.69-16.3,9.55-21.72,16.35
							c-1.74,2.17-3.2,4.44-4.29,6.77c-0.05-0.12,0.02-0.29-0.13,0.46c-3.37-5.16-4.38-11.49-4.86-17.64
							c-0.71-9-0.41-18.32,3.04-26.67c0.77-1.85,1.95-3.84,3.92-4.19c1.11-0.19,2.23,0.2,3.27,0.62
							C337.938,155.297,347.427,163.087,353.788,172.937z"/>
						<path style="fill:#EA7A8D;" d="M347.818,175.257c-8.15,3.69-16.3,9.55-21.72,16.35c-0.11-0.22-0.22-0.43-0.34-0.64
							c-5.68-9.96-3.91-30.64-1.12-32.56c0.67-0.46,1.66-0.62,2.37-0.22c1.96,1.11,2.5,3.68,2.52,6.01
							c0.23-2.28,1.78-3.56,4.41-3.11c0.82,0.14,1.61,0.46,2.31,0.9c2.33,1.48,3.67,3.82,5.18,6
							C343.268,170.647,345.418,173.097,347.818,175.257z"/>
					</g>
					<g>
						<path style="fill:#F4B569;" d="M396.212,172.937c1.96,0.63,3.97,1.41,5.97,2.32c8.15,3.69,16.3,9.55,21.72,16.35
							c1.74,2.17,3.2,4.44,4.29,6.77c0.05-0.12-0.02-0.29,0.13,0.46c3.37-5.16,4.38-11.49,4.86-17.64c0.71-9,0.41-18.32-3.04-26.67
							c-0.77-1.85-1.95-3.84-3.92-4.19c-1.11-0.19-2.23,0.2-3.27,0.62C412.062,155.297,402.572,163.087,396.212,172.937z"/>
						<path style="fill:#FF99A8;" d="M402.182,175.257c8.15,3.69,16.3,9.55,21.72,16.35c0.11-0.22,0.22-0.43,0.34-0.64
							c5.68-9.96,3.91-30.64,1.12-32.56c-0.67-0.46-1.66-0.62-2.37-0.22c-1.96,1.11-2.5,3.68-2.52,6.01
							c-0.23-2.28-1.78-3.56-4.41-3.11c-0.82,0.14-1.61,0.46-2.31,0.9c-2.33,1.48-3.67,3.82-5.18,6
							C406.732,170.647,404.582,173.097,402.182,175.257z"/>
					</g>
				</g>
				<path style="fill:#F7CA89;" d="M433.109,211.037c-0.43-5.15-1.8-10.17-3.35-15.1c-2.89-9.21-11.11-37.31-56.37-37.66
					c-38.02-0.3-49.07,24.78-53.15,37.66c-1.56,4.93-2.93,9.95-3.35,15.1c-0.6,7.22,0.98,14.33,4.15,20.74
					c4.25,8.64,11.38,16.02,19.94,20.72c16.26,8.92,50.84,9.14,68.04,0c8.62-4.58,15.74-11.96,19.97-20.63
					C432.149,225.427,433.709,218.267,433.109,211.037z"/>
				<path style="fill:#F7CA89;" d="M375.05,171.747c-0.07,0.04-0.1,0.03-0.1-0.05C374.98,171.717,375.02,171.727,375.05,171.747z"/>
				<path style="fill:#F5E3C4;" d="M428.975,231.867c-4.23,8.67-11.35,16.05-19.97,20.63c-17.2,9.14-51.78,8.92-68.04,0
					c-8.56-4.7-15.69-12.08-19.94-20.72c0.16-1.3,0.58-2.54,1.35-3.59c1.98-2.7,5.77-3.41,9.09-2.99c3.33,0.42,6.48,1.74,9.79,2.23
					c4.38,0.66,9.07-0.24,12.62-2.9c3.13-2.34,5.18-5.85,8.07-8.47c3.52-3.19,8.3-4.95,13.05-4.84c4.74-0.11,9.52,1.65,13.04,4.84
					c2.9,2.62,4.95,6.13,8.08,8.47c3.54,2.66,8.23,3.56,12.61,2.9c3.31-0.49,6.47-1.81,9.79-2.23c3.32-0.42,7.11,0.29,9.09,2.99
					C428.395,229.257,428.805,230.537,428.975,231.867z"/>
				<g>
					<g>
						<circle style="fill:#261816;" cx="348.71" cy="213.538" r="4.25"/>
						<circle style="fill:#261816;" cx="401.29" cy="213.538" r="4.25"/>
					</g>
					<path style="fill:#261816;" d="M382.434,211.257c0,0.11-0.01,0.21-0.02,0.32c-0.04,0.28-0.1,0.55-0.2,0.81
						c-0.03,0.08-0.07,0.17-0.11,0.25c-0.07,0.21-0.18,0.41-0.3,0.59c-0.06,0.1-0.13,0.19-0.2,0.29c-0.01,0-0.01,0.01-0.01,0.01
						c-0.35,0.53-0.71,0.97-0.98,1.22c-1.55,1.51-3.45,2.96-5.61,2.86h-0.01c-2.16,0.1-4.05-1.35-5.61-2.86
						c-0.29-0.28-0.71-0.79-1.09-1.4c-0.02-0.02-0.03-0.03-0.03-0.05c-0.03-0.02-0.04-0.05-0.06-0.07
						c-0.12-0.18-0.21-0.37-0.29-0.57c-0.03-0.07-0.06-0.14-0.09-0.22c-0.03-0.07-0.06-0.15-0.08-0.22
						c-0.01-0.01-0.01-0.01-0.01-0.01c-0.02-0.08-0.05-0.16-0.07-0.25c-0.03-0.06-0.04-0.12-0.04-0.18
						c-0.02-0.09-0.03-0.18-0.04-0.26c-0.02-0.21-0.03-0.43,0.01-0.64c0.02-0.12,0.05-0.23,0.08-0.35v-0.01
						c0.07-0.25,0.17-0.5,0.34-0.71c0-0.03,0.02-0.05,0.04-0.07c0.02-0.02,0.04-0.04,0.06-0.06c0.66-0.88,1.82-1.38,2.92-1.66
						c1.29-0.32,2.63-0.47,3.97-0.43c1.34-0.04,2.67,0.11,3.97,0.43c1.09,0.28,2.25,0.78,2.92,1.66c0.02,0.02,0.04,0.04,0.06,0.06
						c0.13,0.16,0.23,0.34,0.29,0.53c0.03,0.09,0.06,0.17,0.09,0.26c0.03,0.11,0.06,0.22,0.07,0.33
						C382.434,210.987,382.434,211.127,382.434,211.257z"/>
					<g>
						<path style="fill:none;stroke:#261816;stroke-width:2;stroke-miterlimit:10;" d="M367.716,219.848
							c0.436,1.624,2.044,2.854,3.725,2.85c0.508-0.001,1.018-0.105,1.474-0.33c2.487-1.227,2.056-4.176,2.056-6.359"/>
						<path style="fill:none;stroke:#261816;stroke-width:2;stroke-miterlimit:10;" d="M382.284,219.848
							c-0.436,1.624-2.044,2.854-3.725,2.85c-0.508-0.001-1.018-0.105-1.474-0.33c-2.487-1.227-2.056-4.176-2.056-6.359"/>
					</g>
					<g>
						<ellipse style="fill:#FF99A8;" cx="344.46" cy="223.697" rx="7.25" ry="5.5"/>
						<ellipse style="fill:#FF99A8;" cx="405.54" cy="223.697" rx="7.25" ry="5.5"/>
					</g>
				</g>
			</g>
		</g>
		<g>
			<defs>
				<path id="SVGID_00000052810395846335732320000001829905233072332432_" d="M456.434,144.424v120.71
					c0,11.644-9.435,21.079-21.079,21.079H375V123.345h60.355C446.999,123.345,456.434,132.78,456.434,144.424z"/>
			</defs>
			<clipPath id="SVGID_00000170972196610921150990000010876376733285400500_">
				<use xlink:href="#SVGID_00000052810395846335732320000001829905233072332432_"  style="overflow:visible;"/>
			</clipPath>
			<g style="clip-path:url(#SVGID_00000170972196610921150990000010876376733285400500_);">
				<g>
					<g>
						<path style="fill:#98B0B8;" d="M343.995,171.529c-0.76,3.33-2.4,6.38-4.34,9.22c-0.53,0.8-1.1,1.58-1.67,2.34
							c-1.56,2.08-3.36,3.94-5.36,5.45c-1.81,1.38-3.79,2.46-5.93,3.16c-7.46,2.47-16.21-1.25-20.41-7.89
							c-4.19-6.65-4.04-15.54-0.45-22.53c4.31-8.42,14.04-14.25,23.33-12.46c4.95,0.96,9.47,3.99,12.22,8.21
							C344.146,161.26,345.105,166.609,343.995,171.529z"/>
						<path style="fill:#FF99A8;" d="M339.655,180.749c-0.53,0.8-1.1,1.58-1.67,2.34c-1.56,2.08-3.36,3.94-5.36,5.45
							c-3,0.56-6.23,0.22-9.12-0.84c-3.06-1.12-5.9-3.02-7.75-5.71c-1.85-2.68-2.6-6.2-1.59-9.3c1.01-3.1,3.93-5.6,7.18-5.72
							c-0.71-3.66,2.68-7.27,6.39-7.59c3.72-0.32,7.29,2.02,9.36,5.12C340.225,169.18,340.365,175.039,339.655,180.749z"/>
					</g>
					<g>
						<path style="fill:#98B0B8;" d="M406.004,171.529c0.76,3.33,2.4,6.38,4.34,9.22c0.53,0.8,1.1,1.58,1.67,2.34
							c1.56,2.08,3.36,3.94,5.36,5.45c1.81,1.38,3.79,2.46,5.93,3.16c7.46,2.47,16.21-1.25,20.41-7.89
							c4.19-6.65,4.04-15.54,0.45-22.53c-4.31-8.42-14.04-14.25-23.33-12.46c-4.95,0.96-9.47,3.99-12.22,8.21
							C405.854,161.26,404.895,166.609,406.004,171.529z"/>
						<path style="fill:#FF99A8;" d="M410.344,180.749c0.53,0.8,1.1,1.58,1.67,2.34c1.56,2.08,3.36,3.94,5.36,5.45
							c3,0.56,6.23,0.22,9.12-0.84c3.06-1.12,5.9-3.02,7.75-5.71c1.85-2.68,2.6-6.2,1.59-9.3c-1.01-3.1-3.93-5.6-7.18-5.72
							c0.71-3.66-2.68-7.27-6.39-7.59c-3.72-0.32-7.29,2.02-9.36,5.12C409.775,169.18,409.634,175.039,410.344,180.749z"/>
					</g>
				</g>
				<path style="fill:#ADC5CC;" d="M433.109,212.83c-0.43-5.15-1.8-10.17-3.35-15.1c-2.89-9.21-11.11-37.31-56.37-37.66
					c-38.02-0.3-49.07,24.78-53.15,37.66c-1.56,4.93-2.93,9.95-3.35,15.1c-0.6,7.22,0.98,14.33,4.15,20.74
					c4.25,8.64,11.38,16.02,19.94,20.72c16.26,8.92,50.84,9.14,68.04,0c8.62-4.58,15.74-11.96,19.97-20.63
					C432.149,227.22,433.709,220.06,433.109,212.83z"/>
				<g>
					<circle style="fill:#261816;" cx="348.71" cy="201.498" r="4.25"/>
					<circle style="fill:#261816;" cx="401.29" cy="201.498" r="4.25"/>
				</g>
				<g>
					<ellipse style="fill:#FF99A8;" cx="341.047" cy="211.248" rx="7.25" ry="5.5"/>
					<ellipse style="fill:#FF99A8;" cx="408.953" cy="211.248" rx="7.25" ry="5.5"/>
				</g>
				<path style="fill:#EBEDED;" d="M398.396,229.179c-0.244,3.543-1.054,7.147-2.993,10.14c-3.008,4.627-8.476,7.239-13.943,8.017
					c-1.726,0.244-3.39,0.382-4.963,0.412c-0.489,0.015-0.993,0.031-1.497,0.031s-1.008-0.015-1.497-0.031
					c-1.573-0.031-3.238-0.168-4.963-0.412c-5.482-0.779-10.934-3.39-13.943-8.017c-1.955-2.993-2.749-6.597-2.993-10.14
					c-0.657-9.27,2.184-18.494,6.399-26.755c2.306-4.505,5.314-8.934,9.835-11.209c2.306-1.161,4.734-1.863,7.071-1.863h0.183
					c2.337,0,4.765,0.702,7.071,1.863c4.52,2.275,7.529,6.704,9.819,11.209C396.212,210.685,399.052,219.909,398.396,229.179z"/>
				<g>
					<path style="fill:#261816;" d="M390.32,223.328c-0.16,2.32-0.69,4.68-1.96,6.64c-1.97,3.03-5.55,4.74-9.13,5.25
						c-1.13,0.16-2.22,0.25-3.25,0.27c-0.32,0.01-0.65,0.02-0.98,0.02s-0.66-0.01-0.98-0.02c-1.03-0.02-2.12-0.11-3.25-0.27
						c-3.59-0.51-7.16-2.22-9.13-5.25c-1.28-1.96-1.8-4.32-1.96-6.64c-0.43-6.07,1.43-12.11,4.19-17.52
						c1.51-2.95,3.48-5.85,6.44-7.34c1.51-0.76,3.1-1.22,4.63-1.22h0.12c1.53,0,3.12,0.46,4.63,1.22c2.96,1.49,4.93,4.39,6.43,7.34
						C388.89,211.218,390.75,217.258,390.32,223.328z"/>
					<g>
						<path style="fill:none;stroke:#261816;stroke-width:2;stroke-miterlimit:10;" d="M367.487,237.847
							c0.436,1.624,2.044,2.854,3.726,2.85c0.508-0.001,1.019-0.105,1.474-0.33c2.487-1.227,2.056-4.176,2.056-6.359"/>
						<path style="fill:none;stroke:#261816;stroke-width:2;stroke-miterlimit:10;" d="M382.055,237.847
							c-0.436,1.624-2.044,2.854-3.725,2.85c-0.508-0.001-1.018-0.105-1.474-0.33c-2.487-1.227-2.056-4.176-2.056-6.359"/>
					</g>
				</g>
			</g>
		</g>
		
			<line style="fill:none;stroke:#BCE8E1;stroke-width:5;stroke-linecap:round;stroke-miterlimit:10;" x1="375" y1="114.88" x2="375" y2="294.678"/>
	</g>
	<g>
		<path style="fill:#FFF3F0;stroke:#74D6C6;stroke-width:5;stroke-miterlimit:10;" d="M507.148,263.693V145.865
			c0-12.438,10.083-22.52,22.52-22.52h117.829c12.438,0,22.52,10.083,22.52,22.52v117.829c0,12.438-10.083,22.52-22.52,22.52
			H529.668C517.23,286.214,507.148,276.131,507.148,263.693z"/>
		<g>
			<defs>
				<path id="SVGID_00000152985247495906778280000004110278372316826812_" d="M670.017,144.424v120.71
					c0,11.644-9.435,21.079-21.079,21.079h-60.355V123.345h60.355C660.581,123.345,670.017,132.78,670.017,144.424z"/>
			</defs>
			<clipPath id="SVGID_00000023979847326037975010000017815262938518343856_">
				<use xlink:href="#SVGID_00000152985247495906778280000004110278372316826812_"  style="overflow:visible;"/>
			</clipPath>
			<g style="clip-path:url(#SVGID_00000023979847326037975010000017815262938518343856_);">
				<g>
					<g>
						<ellipse style="fill:#D1885E;" cx="528.791" cy="196.381" rx="14" ry="14.75"/>
						<ellipse style="fill:#FF99A8;" cx="529.872" cy="196.381" rx="8.545" ry="9.003"/>
					</g>
					<g>
						<ellipse style="fill:#D1885E;" cx="648.374" cy="196.381" rx="14" ry="14.75"/>
						<ellipse style="fill:#FF99A8;" cx="647.293" cy="196.381" rx="8.545" ry="9.003"/>
					</g>
				</g>
				<path style="fill:#DE9266;" d="M646.692,207.044c-0.43-5.15-1.8-10.17-3.35-15.1c-2.89-9.21-11.11-37.31-56.37-37.66
					c-38.02-0.3-49.07,24.78-53.15,37.66c-1.56,4.93-2.93,9.95-3.35,15.1c-0.6,7.22,0.98,14.33,4.15,20.74
					c4.25,8.64,11.38,16.02,19.94,20.72c16.26,8.92,50.84,9.14,68.04,0c8.62-4.58,15.74-11.96,19.97-20.63
					C645.732,221.434,647.292,214.274,646.692,207.044z"/>
				<path style="fill:#F2CDB8;" d="M622.497,181.252c-2.11-2.13-4.5-4.074-7.28-5.377c-11.334-5.309-20.281,3.257-26.91,3.209
					c-6.167,0-15.211-8.427-26.35-3.209c-2.78,1.302-5.17,3.246-7.28,5.377c-7.57,7.646-11.83,18.102-11.38,28.492
					c0.46,10.381,5.36,21.001,14.23,27.255c12.904,9.097,44.583,12.441,62.12,0c11.053-7.841,13.77-16.874,14.22-27.255
					C634.327,199.354,630.067,188.898,622.497,181.252z"/>
				<g>
					<g>
						<circle style="fill:#261816;" cx="562.293" cy="209.545" r="4.25"/>
						<circle style="fill:#261816;" cx="614.872" cy="209.545" r="4.25"/>
					</g>
					<path style="fill:#261816;" d="M596.016,207.264c0,0.11-0.01,0.21-0.02,0.32c-0.04,0.28-0.1,0.55-0.2,0.81
						c-0.03,0.08-0.07,0.17-0.11,0.25c-0.07,0.21-0.18,0.41-0.3,0.59c-0.06,0.1-0.13,0.19-0.2,0.29c-0.01,0-0.01,0.01-0.01,0.01
						c-0.35,0.53-0.71,0.97-0.98,1.22c-1.55,1.51-3.45,2.96-5.61,2.86h-0.01c-2.16,0.1-4.05-1.35-5.61-2.86
						c-0.29-0.28-0.71-0.79-1.09-1.4c-0.02-0.02-0.03-0.03-0.03-0.05c-0.03-0.02-0.04-0.05-0.06-0.07
						c-0.12-0.18-0.21-0.37-0.29-0.57c-0.03-0.07-0.06-0.14-0.09-0.22c-0.03-0.07-0.06-0.15-0.08-0.22
						c-0.01-0.01-0.01-0.01-0.01-0.01c-0.02-0.08-0.05-0.16-0.07-0.25c-0.03-0.06-0.04-0.12-0.04-0.18
						c-0.02-0.09-0.03-0.18-0.04-0.26c-0.02-0.21-0.03-0.43,0.01-0.64c0.02-0.12,0.05-0.23,0.08-0.35v-0.01
						c0.07-0.25,0.17-0.5,0.34-0.71c0-0.03,0.02-0.05,0.04-0.07c0.02-0.02,0.04-0.04,0.06-0.06c0.66-0.88,1.82-1.38,2.92-1.66
						c1.29-0.32,2.63-0.47,3.97-0.43c1.34-0.04,2.67,0.11,3.97,0.43c1.09,0.28,2.25,0.78,2.92,1.66c0.02,0.02,0.04,0.04,0.06,0.06
						c0.13,0.16,0.23,0.34,0.29,0.53c0.03,0.09,0.06,0.17,0.09,0.26c0.03,0.11,0.06,0.22,0.07,0.33
						C596.016,206.994,596.016,207.134,596.016,207.264z"/>
					<g>
						<path style="fill:none;stroke:#261816;stroke-width:2;stroke-miterlimit:10;" d="M581.298,215.854
							c0.436,1.624,2.044,2.854,3.725,2.85c0.508-0.001,1.019-0.105,1.474-0.33c2.487-1.227,2.056-4.176,2.056-6.359"/>
						<path style="fill:none;stroke:#261816;stroke-width:2;stroke-miterlimit:10;" d="M595.866,215.854
							c-0.436,1.624-2.044,2.854-3.725,2.85c-0.508-0.001-1.018-0.105-1.474-0.33c-2.487-1.227-2.056-4.176-2.056-6.359"/>
					</g>
					<g>
						<ellipse style="fill:#FF99A8;" cx="558.043" cy="219.704" rx="7.25" ry="5.5"/>
						<ellipse style="fill:#FF99A8;" cx="619.122" cy="219.704" rx="7.25" ry="5.5"/>
					</g>
				</g>
			</g>
		</g>
		<g>
			<defs>
				<path id="SVGID_00000004515817267752640820000010883057353067851920_" d="M507.148,144.424v120.71
					c0,11.644,9.435,21.079,21.079,21.079h60.355V123.345h-60.355C516.583,123.345,507.148,132.78,507.148,144.424z"/>
			</defs>
			<clipPath id="SVGID_00000171699451614668033740000008836386676058599311_">
				<use xlink:href="#SVGID_00000004515817267752640820000010883057353067851920_"  style="overflow:visible;"/>
			</clipPath>
			<g style="clip-path:url(#SVGID_00000171699451614668033740000008836386676058599311_);">
				<g>
					<g>
						<path style="fill:#898F91;" d="M559.242,168.497c-1.163,1.867-2.802,3.378-4.58,4.698c-0.491,0.375-1.002,0.73-1.508,1.073
							c-1.387,0.938-2.873,1.691-4.408,2.189c-1.392,0.459-2.824,0.7-4.273,0.676c-5.059-0.066-9.602-4.17-10.761-9.094
							c-1.151-4.928,0.81-10.307,4.464-13.805c4.394-4.218,11.541-5.719,16.818-2.676c2.81,1.625,4.924,4.42,5.71,7.566
							C561.493,162.278,560.952,165.736,559.242,168.497z"/>
						<path style="fill:#FF99A8;" d="M554.662,173.195c-0.491,0.375-1.002,0.73-1.508,1.073c-1.387,0.938-2.873,1.691-4.408,2.189
							c-1.943-0.29-3.838-1.176-5.373-2.429c-1.627-1.325-2.955-3.079-3.516-5.105c-0.562-2.02-0.278-4.32,0.988-5.994
							c1.267-1.674,3.569-2.581,5.572-1.971c0.338-2.377,3.16-3.861,5.485-3.275c2.331,0.588,4.012,2.762,4.619,5.084
							C557.442,166.274,556.294,169.869,554.662,173.195z"/>
					</g>
					<g>
						<path style="fill:#898F91;" d="M617.923,168.497c1.163,1.867,2.802,3.378,4.58,4.698c0.491,0.375,1.002,0.73,1.508,1.073
							c1.387,0.938,2.873,1.691,4.408,2.189c1.392,0.459,2.824,0.7,4.273,0.676c5.059-0.066,9.602-4.17,10.761-9.094
							c1.151-4.928-0.81-10.307-4.464-13.805c-4.394-4.218-11.541-5.719-16.818-2.676c-2.81,1.625-4.924,4.42-5.71,7.566
							C615.672,162.278,616.213,165.736,617.923,168.497z"/>
						<path style="fill:#FF99A8;" d="M622.503,173.195c0.491,0.375,1.002,0.73,1.508,1.073c1.387,0.938,2.873,1.691,4.408,2.189
							c1.943-0.29,3.838-1.176,5.373-2.429c1.627-1.325,2.955-3.079,3.516-5.105c0.562-2.02,0.278-4.32-0.988-5.994
							c-1.267-1.674-3.569-2.581-5.572-1.971c-0.338-2.377-3.16-3.861-5.485-3.275c-2.331,0.588-4.012,2.762-4.619,5.084
							C619.723,166.274,620.87,169.869,622.503,173.195z"/>
					</g>
				</g>
				<path style="fill:#9CA3A6;" d="M646.692,211.373c-0.43-5.15-1.8-10.17-3.35-15.1c-2.89-9.21-11.11-37.31-56.37-37.66
					c-38.02-0.3-49.07,24.78-53.15,37.66c-1.56,4.93-2.93,9.95-3.35,15.1c-0.6,7.22,0.98,14.33,4.15,20.74
					c4.25,8.64,11.38,16.02,19.94,20.72c16.26,8.92,50.84,9.14,68.04,0c8.62-4.58,15.74-11.96,19.97-20.63
					C645.732,225.763,647.292,218.603,646.692,211.373z"/>
				<g>
					<circle style="fill:#261816;" cx="562.293" cy="204.178" r="4.25"/>
					<circle style="fill:#261816;" cx="614.872" cy="204.178" r="4.25"/>
				</g>
				<g>
					<ellipse style="fill:#FF99A8;" cx="554.63" cy="213.928" rx="7.25" ry="5.5"/>
					<ellipse style="fill:#FF99A8;" cx="622.535" cy="213.928" rx="7.25" ry="5.5"/>
				</g>
				<g>
					<path style="fill:#EBEDED;" d="M611.978,229.693c-0.244,2.638-1.054,5.321-2.993,7.549c-3.008,3.445-8.476,5.389-13.943,5.969
						c-1.726,0.182-3.39,0.284-4.963,0.307c-0.489,0.011-0.992,0.023-1.497,0.023c-0.504,0-1.008-0.011-1.497-0.023
						c-1.573-0.023-3.238-0.125-4.963-0.307c-5.482-0.58-10.934-2.524-13.943-5.969c-1.955-2.228-2.749-4.912-2.993-7.549
						c-0.657-6.901,2.184-13.769,6.399-19.92c2.306-3.354,5.314-6.651,9.835-8.345c2.306-0.864,4.734-1.387,7.071-1.387h0.183
						c2.336,0,4.765,0.523,7.071,1.387c4.52,1.694,7.529,4.991,9.819,8.345C609.794,215.924,612.635,222.792,611.978,229.693z"/>
					<g>
						<path style="fill:#261816;" d="M596.016,210.149c0,0.11-0.01,0.21-0.02,0.32c-0.04,0.28-0.1,0.55-0.2,0.81
							c-0.03,0.08-0.07,0.17-0.11,0.25c-0.07,0.21-0.18,0.41-0.3,0.59c-0.06,0.1-0.13,0.19-0.2,0.29c-0.01,0-0.01,0.01-0.01,0.01
							c-0.35,0.53-0.71,0.97-0.98,1.22c-1.55,1.51-3.45,2.96-5.61,2.86h-0.01c-2.16,0.1-4.05-1.35-5.61-2.86
							c-0.29-0.28-0.71-0.79-1.09-1.4c-0.02-0.02-0.03-0.03-0.03-0.05c-0.03-0.02-0.04-0.05-0.06-0.07
							c-0.12-0.18-0.21-0.37-0.29-0.57c-0.03-0.07-0.06-0.14-0.09-0.22c-0.03-0.07-0.06-0.15-0.08-0.22
							c-0.01-0.01-0.01-0.01-0.01-0.01c-0.02-0.08-0.05-0.16-0.07-0.25c-0.03-0.06-0.04-0.12-0.04-0.18
							c-0.02-0.09-0.03-0.18-0.04-0.26c-0.02-0.21-0.03-0.43,0.01-0.64c0.02-0.12,0.05-0.23,0.08-0.35v-0.01
							c0.07-0.25,0.17-0.5,0.34-0.71c0-0.03,0.02-0.05,0.04-0.07c0.02-0.02,0.04-0.04,0.06-0.06c0.66-0.88,1.82-1.38,2.92-1.66
							c1.29-0.32,2.63-0.47,3.97-0.43c1.34-0.04,2.67,0.11,3.97,0.43c1.09,0.28,2.25,0.78,2.92,1.66c0.02,0.02,0.04,0.04,0.06,0.06
							c0.13,0.16,0.23,0.34,0.29,0.53c0.03,0.09,0.06,0.17,0.09,0.26c0.03,0.11,0.06,0.22,0.07,0.33
							C596.016,209.879,596.016,210.019,596.016,210.149z"/>
						<g>
							<path style="fill:none;stroke:#261816;stroke-width:2;stroke-miterlimit:10;" d="M581.298,217.916
								c0.436,1.624,2.044,2.854,3.725,2.85c0.508-0.001,1.019-0.105,1.474-0.33c2.487-1.227,2.056-4.176,2.056-6.359"/>
							<path style="fill:none;stroke:#261816;stroke-width:2;stroke-miterlimit:10;" d="M595.866,217.916
								c-0.436,1.624-2.044,2.854-3.725,2.85c-0.508-0.001-1.018-0.105-1.474-0.33c-2.487-1.227-2.056-4.176-2.056-6.359"/>
						</g>
					</g>
				</g>
			</g>
		</g>
		
			<line style="fill:none;stroke:#BCE8E1;stroke-width:5;stroke-linecap:round;stroke-miterlimit:10;" x1="588.582" y1="114.88" x2="588.582" y2="294.678"/>
	</g>
	<g>
		<path style="fill:#FFF3F0;stroke:#74D6C6;stroke-width:5;stroke-miterlimit:10;" d="M79.983,454.72V336.891
			c0-12.438,10.083-22.52,22.52-22.52h117.829c12.438,0,22.52,10.083,22.52,22.52V454.72c0,12.438-10.083,22.52-22.52,22.52H102.503
			C90.066,477.24,79.983,467.157,79.983,454.72z"/>
		<g>
			<defs>
				<path id="SVGID_00000163032386015888069710000014086444309467387830_" d="M79.983,335.45v120.71
					c0,11.644,9.435,21.079,21.079,21.079h60.355V314.371h-60.355C89.419,314.371,79.983,323.806,79.983,335.45z"/>
			</defs>
			<clipPath id="SVGID_00000147905982492987181900000014385391339373180332_">
				<use xlink:href="#SVGID_00000163032386015888069710000014086444309467387830_"  style="overflow:visible;"/>
			</clipPath>
			<g style="clip-path:url(#SVGID_00000147905982492987181900000014385391339373180332_);">
				<g>
					<g>
						<path style="fill:#D1885E;" d="M111.136,388.31c-10.627-16.738-9.853-42.897-6.786-45.56c1.037-0.9,2.596-0.754,3.949-0.521
							c12.109,2.088,23.465,8.312,31.74,17.396C128.752,366.973,118.956,376.601,111.136,388.31z"/>
						<path style="fill:#FF99A8;" d="M114.239,377.063c-5.93-9.339-5.498-23.935-3.786-25.421c0.578-0.502,1.448-0.421,2.203-0.29
							c6.756,1.165,13.093,4.638,17.71,9.707C124.068,365.157,118.602,370.53,114.239,377.063z"/>
					</g>
					<g>
						<path style="fill:#D1885E;" d="M211.699,388.31c10.627-16.738,9.853-42.897,6.786-45.56c-1.037-0.9-2.596-0.754-3.949-0.521
							c-12.109,2.088-23.465,8.312-31.74,17.396C194.084,366.973,203.879,376.601,211.699,388.31z"/>
						<path style="fill:#FF99A8;" d="M208.596,377.063c5.93-9.339,5.498-23.935,3.786-25.421c-0.579-0.502-1.448-0.421-2.204-0.29
							c-6.756,1.165-13.093,4.638-17.71,9.707C198.768,365.157,204.233,370.53,208.596,377.063z"/>
					</g>
				</g>
				<path style="fill:#EDE5DA;" d="M219.524,401.324c-0.43-5.15-1.8-10.17-3.35-15.1c-0.48-1.53-1.11-3.59-2.03-5.96
					c-0.48-1.24-1.05-2.57-1.72-3.95c-0.76-1.56-1.65-3.19-2.7-4.84c-0.94-1.48-2.01-2.99-3.24-4.48
					c-2.92-3.56-6.71-7.05-11.67-10.01c-0.22-0.13-0.44-0.26-0.66-0.39c-0.03-0.01-0.06-0.03-0.09-0.05
					c-1.69-0.97-3.52-1.88-5.49-2.71c-0.62-0.27-1.26-0.52-1.92-0.77c-0.4-0.16-0.81-0.31-1.23-0.45c-1.37-0.49-2.8-0.94-4.3-1.35
					c-4.96-1.36-10.65-2.27-17.15-2.59c-0.66-0.03-1.32-0.06-1.99-0.07c-0.67-0.02-1.35-0.03-2.04-0.04h-0.75
					c-0.81,0-1.6,0.01-2.38,0.04c-0.73,0.02-1.45,0.05-2.15,0.09c-0.85,0.05-1.69,0.11-2.51,0.19c-3.94,0.34-7.54,1-10.82,1.89
					c-1.4,0.38-2.74,0.8-4.02,1.26c-0.51,0.19-1.02,0.38-1.51,0.58c-0.64,0.25-1.27,0.52-1.88,0.79c-1.94,0.86-3.75,1.82-5.43,2.85
					c-0.01,0.01-0.03,0.01-0.04,0.02c-0.05,0.02-0.09,0.05-0.14,0.08c-4.99,3.08-8.89,6.82-11.94,10.73
					c-1.15,1.47-2.19,2.95-3.11,4.44c-1.06,1.69-1.98,3.39-2.79,5.04c-0.61,1.26-1.16,2.49-1.65,3.68c-0.9,2.16-1.6,4.19-2.17,5.98
					c-1.56,4.93-2.93,9.95-3.35,15.1c-0.6,7.22,0.98,14.33,4.15,20.74c4.04,8.21,10.68,15.28,18.67,19.99
					c0.42,0.25,0.84,0.5,1.27,0.73c4.57,2.51,10.58,4.33,17.25,5.44c2.95,0.5,6.02,0.85,9.16,1.07c3.88,0.28,7.85,0.34,11.77,0.17
					c1.64-0.06,3.26-0.16,4.87-0.3c2.62-0.22,5.2-0.55,7.7-0.97c6.58-1.11,12.58-2.91,17.29-5.41c0.43-0.23,0.86-0.47,1.29-0.72
					c8.04-4.61,14.66-11.68,18.68-19.91C218.564,415.714,220.124,408.554,219.524,401.324z"/>
				<g>
					<g>
						<circle style="fill:#261816;" cx="135.128" cy="403.82" r="4.25"/>
						<circle style="fill:#261816;" cx="187.707" cy="403.82" r="4.25"/>
					</g>
					<path style="fill:#261816;" d="M166.111,403.883c0,0.069-0.006,0.133-0.013,0.202c-0.025,0.177-0.063,0.347-0.126,0.511
						c-0.019,0.051-0.044,0.107-0.07,0.158c-0.044,0.132-0.114,0.259-0.189,0.372c-0.038,0.063-0.082,0.12-0.126,0.183
						c-0.006,0-0.006,0.006-0.006,0.006c-0.221,0.335-0.448,0.612-0.619,0.77c-0.979,0.953-2.178,1.869-3.542,1.806h-0.006
						c-1.364,0.063-2.557-0.852-3.542-1.806c-0.183-0.177-0.448-0.499-0.688-0.884c-0.013-0.013-0.019-0.019-0.019-0.032
						c-0.019-0.013-0.025-0.032-0.038-0.044c-0.076-0.114-0.132-0.234-0.183-0.36c-0.019-0.044-0.038-0.088-0.057-0.139
						c-0.019-0.044-0.038-0.095-0.05-0.139c-0.006-0.006-0.006-0.006-0.006-0.006c-0.013-0.051-0.032-0.101-0.044-0.158
						c-0.019-0.038-0.025-0.076-0.025-0.114c-0.013-0.057-0.019-0.114-0.025-0.164c-0.013-0.133-0.019-0.271,0.006-0.404
						c0.013-0.076,0.032-0.145,0.051-0.221v-0.006c0.044-0.158,0.107-0.316,0.215-0.448c0-0.019,0.013-0.032,0.025-0.044
						c0.013-0.013,0.025-0.025,0.038-0.038c0.417-0.556,1.149-0.871,1.843-1.048c0.814-0.202,1.66-0.297,2.506-0.271
						c0.846-0.025,1.686,0.069,2.506,0.271c0.688,0.177,1.42,0.492,1.843,1.048c0.013,0.013,0.025,0.025,0.038,0.038
						c0.082,0.101,0.145,0.215,0.183,0.335c0.019,0.057,0.038,0.107,0.057,0.164c0.019,0.07,0.038,0.139,0.044,0.208
						C166.111,403.712,166.111,403.801,166.111,403.883z"/>
					<g>
						<path style="fill:none;stroke:#261816;stroke-width:2;stroke-miterlimit:10;" d="M154.134,410.13
							c0.436,1.624,2.044,2.854,3.726,2.85c0.508-0.001,1.018-0.105,1.474-0.33c2.487-1.227,2.056-4.176,2.056-6.359"/>
						<path style="fill:none;stroke:#261816;stroke-width:2;stroke-miterlimit:10;" d="M168.702,410.13
							c-0.436,1.624-2.044,2.854-3.725,2.85c-0.508-0.001-1.019-0.105-1.474-0.33c-2.487-1.227-2.056-4.176-2.056-6.359"/>
					</g>
					<g>
						<ellipse style="fill:#FF99A8;" cx="130.878" cy="413.98" rx="7.25" ry="5.5"/>
						<ellipse style="fill:#FF99A8;" cx="191.957" cy="413.98" rx="7.25" ry="5.5"/>
					</g>
				</g>
				<path style="fill:#DE9266;" d="M185.424,352.614c-1.06,1.43-2.01,2.95-2.95,4.49c-0.1,0.15-0.2,0.3-0.29,0.46
					c-0.94,1.51-1.88,3.03-2.93,4.45c-3.18,4.32-7.85,8.5-11.91,9.69c-3.04,0.89-6.73,1.39-11.3-0.21
					c-4.77-1.68-8.94-5.16-12.12-9.48c-2.35-3.2-4.19-6.86-6.61-9.98c1.28-0.46,2.62-0.88,4.02-1.26c3.28-0.89,6.88-1.55,10.82-1.89
					c0.82-0.08,1.66-0.14,2.51-0.19c0.7-0.04,1.42-0.07,2.15-0.09c0.78-0.03,1.57-0.04,2.38-0.04h0.75
					c0.69,0.01,1.37,0.02,2.04,0.04c0.67,0.01,1.33,0.04,1.99,0.07c6.5,0.32,12.19,1.23,17.15,2.59
					C182.624,351.674,184.054,352.124,185.424,352.614z"/>
				<g>
					<g>
						<path style="fill:none;stroke:#261816;stroke-width:2;stroke-miterlimit:10;" d="M199.81,408.565
							c5.771-1.842,11.795-2.526,17.75-2.016"/>
						<path style="fill:none;stroke:#261816;stroke-width:2;stroke-miterlimit:10;" d="M200.099,404.445
							c4.835-2.633,9.946-4.283,15.102-4.875"/>
						<path style="fill:none;stroke:#261816;stroke-width:2;stroke-miterlimit:10;" d="M200.914,412.527
							c5.298-0.346,10.558,0.344,15.543,2.041"/>
					</g>
					<g>
						<path style="fill:none;stroke:#261816;stroke-width:2;stroke-miterlimit:10;" d="M123.025,408.565
							c-5.771-1.842-11.795-2.526-17.75-2.016"/>
						<path style="fill:none;stroke:#261816;stroke-width:2;stroke-miterlimit:10;" d="M122.736,404.445
							c-4.835-2.633-9.946-4.283-15.102-4.875"/>
						<path style="fill:none;stroke:#261816;stroke-width:2;stroke-miterlimit:10;" d="M121.922,412.527
							c-5.298-0.346-10.558,0.344-15.543,2.041"/>
					</g>
				</g>
				<path style="fill:#DE9266;" d="M215.407,422.154c-4.02,8.23-10.64,15.3-18.68,19.91c-0.43,0.25-0.86,0.49-1.29,0.72
					c-4.71,2.5-10.71,4.3-17.29,5.41c-2.5,0.42-5.08,0.75-7.7,0.97c-1.61,0.14-3.23,0.24-4.87,0.3c0.9-2.49,2.62-4.7,4.85-6.15
					c4.13-2.69,9.6-2.78,13.57-5.69c3.25-2.38,4.98-6.26,7.55-9.37C197.147,421.504,207.247,419.164,215.407,422.154z"/>
				<path style="fill:#DE9266;" d="M129.62,362.294c-2.373,2.373-2.411,6.584-0.483,9.331c1.928,2.746,5.809,3.927,8.939,2.718
					c1.466-0.566,2.879-1.578,3.461-3.038C143.38,366.676,135.434,356.481,129.62,362.294z"/>
			</g>
		</g>
		<g>
			<defs>
				<path id="SVGID_00000036961175332811853900000010977841924530826650_" d="M242.852,335.45v120.71
					c0,11.644-9.435,21.079-21.079,21.079h-60.355V314.371h60.355C233.417,314.371,242.852,323.806,242.852,335.45z"/>
			</defs>
			<clipPath id="SVGID_00000036968291017788471020000015859446233503845251_">
				<use xlink:href="#SVGID_00000036961175332811853900000010977841924530826650_"  style="overflow:visible;"/>
			</clipPath>
			<g style="clip-path:url(#SVGID_00000036968291017788471020000015859446233503845251_);">
				<g>
					<g>
						<path style="fill:#898F91;" d="M132.077,359.523c-1.163,1.867-2.802,3.378-4.58,4.698c-0.491,0.375-1.002,0.73-1.508,1.073
							c-1.387,0.938-2.873,1.691-4.408,2.189c-1.392,0.459-2.824,0.7-4.273,0.676c-5.059-0.066-9.602-4.17-10.761-9.094
							c-1.151-4.928,0.81-10.307,4.464-13.805c4.394-4.218,11.541-5.719,16.818-2.676c2.81,1.625,4.924,4.42,5.71,7.566
							C134.328,353.304,133.787,356.762,132.077,359.523z"/>
						<path style="fill:#FF99A8;" d="M127.497,364.221c-0.491,0.375-1.002,0.73-1.508,1.073c-1.387,0.938-2.873,1.691-4.408,2.189
							c-1.943-0.29-3.838-1.176-5.373-2.429c-1.627-1.325-2.955-3.079-3.515-5.105c-0.562-2.02-0.278-4.32,0.988-5.994
							c1.267-1.674,3.569-2.582,5.572-1.971c0.338-2.377,3.16-3.861,5.485-3.275c2.331,0.588,4.012,2.762,4.619,5.084
							C130.277,357.3,129.13,360.895,127.497,364.221z"/>
					</g>
					<g>
						<path style="fill:#898F91;" d="M190.758,359.523c1.163,1.867,2.802,3.378,4.58,4.698c0.491,0.375,1.002,0.73,1.508,1.073
							c1.387,0.938,2.873,1.691,4.408,2.189c1.392,0.459,2.824,0.7,4.273,0.676c5.059-0.066,9.602-4.17,10.761-9.094
							c1.151-4.928-0.809-10.307-4.464-13.805c-4.394-4.218-11.541-5.719-16.818-2.676c-2.811,1.625-4.924,4.42-5.71,7.566
							C188.507,353.304,189.048,356.762,190.758,359.523z"/>
						<path style="fill:#FF99A8;" d="M195.338,364.221c0.491,0.375,1.002,0.73,1.508,1.073c1.387,0.938,2.873,1.691,4.408,2.189
							c1.944-0.29,3.838-1.176,5.374-2.429c1.627-1.325,2.955-3.079,3.516-5.105c0.562-2.02,0.278-4.32-0.988-5.994
							c-1.267-1.674-3.569-2.582-5.572-1.971c-0.338-2.377-3.16-3.861-5.485-3.275c-2.331,0.588-4.012,2.762-4.619,5.084
							C192.558,357.3,193.705,360.895,195.338,364.221z"/>
					</g>
				</g>
				<path style="fill:#9CA3A6;" d="M219.527,402.399c-0.43-5.15-1.8-10.17-3.35-15.1c-2.89-9.21-11.11-37.31-56.37-37.66
					c-38.02-0.3-49.07,24.78-53.15,37.66c-1.56,4.93-2.93,9.95-3.35,15.1c-0.6,7.22,0.98,14.33,4.15,20.74
					c4.25,8.64,11.38,16.02,19.94,20.72c16.26,8.92,50.84,9.14,68.04,0c8.62-4.58,15.74-11.96,19.97-20.63
					C218.567,416.789,220.127,409.629,219.527,402.399z"/>
				<g>
					<circle style="fill:#261816;" cx="135.128" cy="395.204" r="4.25"/>
					<circle style="fill:#261816;" cx="187.707" cy="395.204" r="4.25"/>
				</g>
				<g>
					<ellipse style="fill:#FF99A8;" cx="127.465" cy="404.954" rx="7.25" ry="5.5"/>
					<ellipse style="fill:#FF99A8;" cx="195.37" cy="404.954" rx="7.25" ry="5.5"/>
				</g>
				<g>
					<path style="fill:#EBEDED;" d="M184.813,420.719c-0.244,2.638-1.054,5.321-2.993,7.549c-3.008,3.445-8.475,5.389-13.943,5.969
						c-1.726,0.182-3.39,0.284-4.963,0.307c-0.489,0.011-0.993,0.023-1.497,0.023c-0.504,0-1.008-0.011-1.496-0.023
						c-1.573-0.023-3.238-0.125-4.963-0.307c-5.482-0.58-10.934-2.524-13.943-5.969c-1.955-2.228-2.749-4.912-2.993-7.549
						c-0.657-6.901,2.184-13.769,6.399-19.919c2.306-3.354,5.314-6.651,9.835-8.345c2.306-0.864,4.734-1.387,7.071-1.387h0.183
						c2.336,0,4.765,0.523,7.071,1.387c4.52,1.694,7.529,4.991,9.819,8.345C182.63,406.95,185.47,413.818,184.813,420.719z"/>
					<g>
						<path style="fill:#261816;" d="M168.852,401.175c0,0.11-0.01,0.21-0.02,0.32c-0.04,0.28-0.1,0.55-0.2,0.81
							c-0.03,0.08-0.07,0.17-0.11,0.25c-0.07,0.21-0.18,0.41-0.3,0.59c-0.06,0.1-0.13,0.19-0.2,0.29c-0.01,0-0.01,0.01-0.01,0.01
							c-0.35,0.53-0.71,0.97-0.98,1.22c-1.55,1.51-3.45,2.96-5.61,2.86h-0.01c-2.16,0.1-4.05-1.35-5.61-2.86
							c-0.29-0.28-0.71-0.79-1.09-1.4c-0.02-0.02-0.03-0.03-0.03-0.05c-0.03-0.02-0.04-0.05-0.06-0.07
							c-0.12-0.18-0.21-0.37-0.29-0.57c-0.03-0.07-0.06-0.14-0.09-0.22c-0.03-0.07-0.06-0.15-0.08-0.22
							c-0.01-0.01-0.01-0.01-0.01-0.01c-0.02-0.08-0.05-0.16-0.07-0.25c-0.03-0.06-0.04-0.12-0.04-0.18
							c-0.02-0.09-0.03-0.18-0.04-0.26c-0.02-0.21-0.03-0.43,0.01-0.64c0.02-0.12,0.05-0.23,0.08-0.35v-0.01
							c0.07-0.25,0.17-0.5,0.34-0.71c0-0.03,0.02-0.05,0.04-0.07c0.02-0.02,0.04-0.04,0.06-0.06c0.66-0.88,1.82-1.38,2.92-1.66
							c1.29-0.32,2.63-0.47,3.97-0.43c1.34-0.04,2.67,0.11,3.97,0.43c1.09,0.28,2.25,0.78,2.92,1.66c0.02,0.02,0.04,0.04,0.06,0.06
							c0.13,0.16,0.23,0.34,0.29,0.53c0.03,0.09,0.06,0.17,0.09,0.26c0.03,0.11,0.06,0.22,0.07,0.33
							C168.852,400.905,168.852,401.045,168.852,401.175z"/>
						<g>
							<path style="fill:none;stroke:#261816;stroke-width:2;stroke-miterlimit:10;" d="M154.134,408.942
								c0.436,1.624,2.044,2.854,3.726,2.85c0.508-0.001,1.018-0.105,1.474-0.33c2.487-1.227,2.056-4.176,2.056-6.359"/>
							<path style="fill:none;stroke:#261816;stroke-width:2;stroke-miterlimit:10;" d="M168.702,408.942
								c-0.436,1.624-2.044,2.854-3.725,2.85c-0.508-0.001-1.019-0.105-1.474-0.33c-2.487-1.227-2.056-4.176-2.056-6.359"/>
						</g>
					</g>
				</g>
			</g>
		</g>
		
			<line style="fill:none;stroke:#BCE8E1;stroke-width:5;stroke-linecap:round;stroke-miterlimit:10;" x1="161.418" y1="305.906" x2="161.418" y2="485.704"/>
	</g>
	<g>
		<path style="fill:#FFF3F0;stroke:#74D6C6;stroke-width:5;stroke-miterlimit:10;" d="M293.566,454.72V336.891
			c0-12.438,10.083-22.52,22.52-22.52h117.829c12.438,0,22.52,10.083,22.52,22.52V454.72c0,12.438-10.083,22.52-22.52,22.52H316.086
			C303.648,477.24,293.566,467.157,293.566,454.72z"/>
		<g>
			<defs>
				<path id="SVGID_00000024694790167200894730000002701467916338422697_" d="M456.434,335.45v120.71
					c0,11.644-9.435,21.079-21.079,21.079H375V314.371h60.355C446.999,314.371,456.434,323.806,456.434,335.45z"/>
			</defs>
			<clipPath id="SVGID_00000155861986927190202500000004674593156937000877_">
				<use xlink:href="#SVGID_00000024694790167200894730000002701467916338422697_"  style="overflow:visible;"/>
			</clipPath>
			<g style="clip-path:url(#SVGID_00000155861986927190202500000004674593156937000877_);">
				<g>
					<path style="fill:#D15E6F;" d="M409.208,364.761c2.14,2.9,5.75,7.19,8.57,10.01c0.58,0.58,1.12,1.09,1.61,1.52
						c0.03-0.16,0.07-0.32,0.1-0.48c0.42-2.09,0.84-4.17,1.27-6.26c0.08-0.43,0.19-0.89,0.52-1.17c0.48-0.42,1.21-0.29,1.83-0.17
						c5.3,1.06,10.8,2.11,12.73-1.66c0.1-0.19,0.18-0.38,0.23-0.58c0.09-0.27,0.15-0.54,0.15-0.82c0.02-0.07,0.02-0.14,0.02-0.21
						v-0.19l-0.03-0.39c0-0.01,0-0.01,0-0.02c-0.06-0.43-0.21-0.85-0.44-1.24c-0.62-1.04-1.61-1.81-2.54-2.6
						c-2.48-2.09-4.71-4.48-6.62-7.1c-1.14-1.56-2.19-3.22-3.64-4.51c-0.94-0.83-2.12-1.58-3.33-1.85
						c-0.03-0.01-0.06-0.01-0.09-0.02c-0.63-0.12-1.27-0.11-1.88,0.09C411.678,349.081,414.948,360.531,409.208,364.761z"/>
					<path style="fill:#D15E6F;" d="M340.792,364.761c-2.14,2.9-5.75,7.19-8.57,10.01c-0.58,0.58-1.12,1.09-1.61,1.52
						c-0.03-0.16-0.07-0.32-0.1-0.48c-0.42-2.09-0.84-4.17-1.27-6.26c-0.08-0.43-0.19-0.89-0.52-1.17
						c-0.48-0.42-1.21-0.29-1.83-0.17c-5.3,1.06-10.8,2.11-12.73-1.66c-0.1-0.19-0.18-0.38-0.23-0.58
						c-0.09-0.27-0.15-0.54-0.15-0.82c-0.02-0.07-0.02-0.14-0.02-0.21v-0.19l0.03-0.39c0-0.01,0-0.01,0-0.02
						c0.06-0.43,0.21-0.85,0.44-1.24c0.62-1.04,1.61-1.81,2.54-2.6c2.48-2.09,4.71-4.48,6.62-7.1c1.14-1.56,2.19-3.22,3.64-4.51
						c0.94-0.83,2.12-1.58,3.33-1.85c0.03-0.01,0.06-0.01,0.09-0.02c0.63-0.12,1.27-0.11,1.88,0.09
						C338.322,349.081,335.052,360.531,340.792,364.761z"/>
				</g>
				<path style="fill:#FF99A8;" d="M433.109,398.07c-0.43-5.15-1.8-10.17-3.35-15.1c-2.89-9.21-11.11-37.31-56.37-37.66
					c-38.02-0.3-49.07,24.78-53.15,37.66c-1.56,4.93-2.93,9.95-3.35,15.1c-0.6,7.22,0.98,14.33,4.15,20.74
					c4.25,8.64,11.38,16.02,19.94,20.72c16.26,8.92,50.84,9.14,68.04,0c8.62-4.58,15.74-11.96,19.97-20.63
					C432.149,412.46,433.709,405.3,433.109,398.07z"/>
				<g>
					<circle style="fill:#261816;" cx="348.71" cy="400.571" r="4.25"/>
					<circle style="fill:#261816;" cx="401.29" cy="400.571" r="4.25"/>
				</g>
				<g>
					<ellipse style="fill:#EA7A8D;" cx="344.46" cy="410.73" rx="7.25" ry="5.5"/>
					<ellipse style="fill:#EA7A8D;" cx="405.54" cy="410.73" rx="7.25" ry="5.5"/>
				</g>
				<g>
					<path style="fill:#EA7A8D;" d="M390.065,418.352c-2.25,3.51-6.84,4.54-10.97,5.12c-1.17,0.16-2.64,0.25-4.09,0.24
						c-1.46,0.01-2.93-0.08-4.1-0.24c-4.13-0.58-8.72-1.61-10.97-5.12c-1.96-3.04-1.51-7.03-0.51-10.51
						c0.53-1.86,1.23-3.73,2.44-5.25c1.42-1.8,3.341-3.06,5.55-3.71c4.495-1.323,10.378-1.692,15.17,0
						c2.171,0.767,4.13,1.91,5.55,3.71c1.21,1.52,1.91,3.39,2.44,5.25C391.575,411.322,392.025,415.312,390.065,418.352z"/>
					<g>
						<ellipse style="fill:#261816;" cx="368.625" cy="410.561" rx="3" ry="3.5"/>
						<ellipse style="fill:#261816;" cx="381.375" cy="410.561" rx="3" ry="3.5"/>
					</g>
				</g>
				<g>
					<path style="fill:#EA7A8D;" d="M332.222,371.711c-0.06,0.79-0.22,1.57-0.51,2.36c-0.22,0.6-0.6,1.23-1.2,1.74
						c-0.51,0.43-1.18,0.77-2.06,0.93c-1.84,0.32-3.75-0.32-5.22-1.03c-5.1-2.44-8.49-5.99-9.3-9.74c-0.03-0.1-0.05-0.19-0.07-0.29
						c-0.03-0.17-0.06-0.35-0.08-0.53c-0.01-0.09-0.02-0.18-0.02-0.27v-0.13l0.03-0.39c0-0.01,0-0.01,0-0.02
						c0.06-0.43,0.21-0.85,0.44-1.24c0.62-1.04,1.61-1.81,2.54-2.6c2.48-2.09,4.71-4.48,6.62-7.1c1.14-1.56,2.19-3.22,3.64-4.51
						c0.94-0.83,2.12-1.58,3.33-1.85c-3.26,2.68,0.23,13.65,1.03,17.95C331.812,367.221,332.392,369.481,332.222,371.711z"/>
					<path style="fill:#EA7A8D;" d="M417.778,371.711c0.06,0.79,0.22,1.57,0.51,2.36c0.22,0.6,0.6,1.23,1.2,1.74
						c0.51,0.43,1.18,0.77,2.06,0.93c1.84,0.32,3.75-0.32,5.22-1.03c5.1-2.44,8.49-5.99,9.3-9.74c0.03-0.1,0.05-0.19,0.07-0.29
						c0.03-0.17,0.06-0.35,0.08-0.53c0.01-0.09,0.02-0.18,0.02-0.27v-0.13l-0.03-0.39c0-0.01,0-0.01,0-0.02
						c-0.06-0.43-0.21-0.85-0.44-1.24c-0.62-1.04-1.61-1.81-2.54-2.6c-2.48-2.09-4.71-4.48-6.62-7.1c-1.14-1.56-2.19-3.22-3.64-4.51
						c-0.94-0.83-2.12-1.58-3.33-1.85c3.26,2.68-0.23,13.65-1.03,17.95C418.188,367.221,417.608,369.481,417.778,371.711z"/>
				</g>
			</g>
		</g>
		<g>
			<defs>
				<path id="SVGID_00000157287074898375239170000002117451004170800315_" d="M293.566,335.45v120.71
					c0,11.644,9.435,21.079,21.079,21.079H375V314.371h-60.355C303.001,314.371,293.566,323.806,293.566,335.45z"/>
			</defs>
			<clipPath id="SVGID_00000142872316858156832190000010145656602529552036_">
				<use xlink:href="#SVGID_00000157287074898375239170000002117451004170800315_"  style="overflow:visible;"/>
			</clipPath>
			<g style="clip-path:url(#SVGID_00000142872316858156832190000010145656602529552036_);">
				<g>
					<g>
						<ellipse style="fill:#D1885E;" cx="315.208" cy="387.408" rx="14" ry="14.75"/>
						<ellipse style="fill:#FF99A8;" cx="316.29" cy="387.407" rx="8.545" ry="9.003"/>
					</g>
					<g>
						<ellipse style="fill:#D1885E;" cx="434.792" cy="387.408" rx="14" ry="14.75"/>
						<ellipse style="fill:#FF99A8;" cx="433.71" cy="387.407" rx="8.545" ry="9.003"/>
					</g>
				</g>
				<path style="fill:#DE9266;" d="M433.109,398.07c-0.43-5.15-1.8-10.17-3.35-15.1c-2.89-9.21-11.11-37.31-56.37-37.66
					c-38.02-0.3-49.07,24.78-53.15,37.66c-1.56,4.93-2.93,9.95-3.35,15.1c-0.6,7.22,0.98,14.33,4.15,20.74
					c4.25,8.64,11.38,16.02,19.94,20.72c16.26,8.92,50.84,9.14,68.04,0c8.62-4.58,15.74-11.96,19.97-20.63
					C432.149,412.46,433.709,405.3,433.109,398.07z"/>
				<path style="fill:#F2CDB8;" d="M408.914,372.278c-2.11-2.13-4.5-4.074-7.28-5.377c-11.334-5.309-20.281,3.257-26.91,3.209
					c-6.167,0-15.211-8.427-26.35-3.209c-2.78,1.302-5.17,3.246-7.28,5.377c-7.57,7.646-11.83,18.102-11.38,28.492
					c0.46,10.381,5.36,21.001,14.23,27.255c12.904,9.097,44.583,12.441,62.12,0c11.053-7.841,13.77-16.874,14.22-27.255
					C420.744,390.38,416.484,379.924,408.914,372.278z"/>
				<g>
					<g>
						<circle style="fill:#261816;" cx="348.71" cy="400.571" r="4.25"/>
						<circle style="fill:#261816;" cx="401.29" cy="400.571" r="4.25"/>
					</g>
					<path style="fill:#261816;" d="M382.434,398.29c0,0.11-0.01,0.21-0.02,0.32c-0.04,0.28-0.1,0.55-0.2,0.81
						c-0.03,0.08-0.07,0.17-0.11,0.25c-0.07,0.21-0.18,0.41-0.3,0.59c-0.06,0.1-0.13,0.19-0.2,0.29c-0.01,0-0.01,0.01-0.01,0.01
						c-0.35,0.53-0.71,0.97-0.98,1.22c-1.55,1.51-3.45,2.96-5.61,2.86h-0.01c-2.16,0.1-4.05-1.35-5.61-2.86
						c-0.29-0.28-0.71-0.79-1.09-1.4c-0.02-0.02-0.03-0.03-0.03-0.05c-0.03-0.02-0.04-0.05-0.06-0.07
						c-0.12-0.18-0.21-0.37-0.29-0.57c-0.03-0.07-0.06-0.14-0.09-0.22c-0.03-0.07-0.06-0.15-0.08-0.22
						c-0.01-0.01-0.01-0.01-0.01-0.01c-0.02-0.08-0.05-0.16-0.07-0.25c-0.03-0.06-0.04-0.12-0.04-0.18
						c-0.02-0.09-0.03-0.18-0.04-0.26c-0.02-0.21-0.03-0.43,0.01-0.64c0.02-0.12,0.05-0.23,0.08-0.35v-0.01
						c0.07-0.25,0.17-0.5,0.34-0.71c0-0.03,0.02-0.05,0.04-0.07c0.02-0.02,0.04-0.04,0.06-0.06c0.66-0.88,1.82-1.38,2.92-1.66
						c1.29-0.32,2.63-0.47,3.97-0.43c1.34-0.04,2.67,0.11,3.97,0.43c1.09,0.28,2.25,0.78,2.92,1.66c0.02,0.02,0.04,0.04,0.06,0.06
						c0.13,0.16,0.23,0.34,0.29,0.53c0.03,0.09,0.06,0.17,0.09,0.26c0.03,0.11,0.06,0.22,0.07,0.33
						C382.434,398.02,382.434,398.16,382.434,398.29z"/>
					<g>
						<path style="fill:none;stroke:#261816;stroke-width:2;stroke-miterlimit:10;" d="M367.716,406.88
							c0.436,1.624,2.044,2.854,3.725,2.85c0.508-0.001,1.018-0.105,1.474-0.33c2.487-1.227,2.056-4.176,2.056-6.359"/>
						<path style="fill:none;stroke:#261816;stroke-width:2;stroke-miterlimit:10;" d="M382.284,406.88
							c-0.436,1.624-2.044,2.854-3.725,2.85c-0.508-0.001-1.018-0.105-1.474-0.33c-2.487-1.227-2.056-4.176-2.056-6.359"/>
					</g>
					<g>
						<ellipse style="fill:#FF99A8;" cx="344.46" cy="410.73" rx="7.25" ry="5.5"/>
						<ellipse style="fill:#FF99A8;" cx="405.54" cy="410.73" rx="7.25" ry="5.5"/>
					</g>
				</g>
			</g>
		</g>
		
			<line style="fill:none;stroke:#BCE8E1;stroke-width:5;stroke-linecap:round;stroke-miterlimit:10;" x1="375" y1="305.906" x2="375" y2="485.704"/>
	</g>
	<g>
		<path style="fill:#FFF3F0;stroke:#74D6C6;stroke-width:5;stroke-miterlimit:10;" d="M507.148,454.72V336.891
			c0-12.438,10.083-22.52,22.52-22.52h117.829c12.438,0,22.52,10.083,22.52,22.52V454.72c0,12.438-10.083,22.52-22.52,22.52H529.668
			C517.23,477.24,507.148,467.157,507.148,454.72z"/>
		<g>
			<defs>
				<path id="SVGID_00000058565321957241465100000003329927517611846298_" d="M670.017,335.45v120.71
					c0,11.644-9.435,21.079-21.079,21.079h-60.355V314.371h60.355C660.581,314.371,670.017,323.806,670.017,335.45z"/>
			</defs>
			<clipPath id="SVGID_00000154410526390453066330000008900500229811087001_">
				<use xlink:href="#SVGID_00000058565321957241465100000003329927517611846298_"  style="overflow:visible;"/>
			</clipPath>
			<g style="clip-path:url(#SVGID_00000154410526390453066330000008900500229811087001_);">
				<g>
					<g>
						<path style="fill:#D1885E;" d="M538.301,388.31c-10.627-16.738-9.853-42.897-6.786-45.56c1.037-0.9,2.596-0.754,3.949-0.521
							c12.109,2.088,23.465,8.312,31.74,17.396C555.916,366.973,546.121,376.601,538.301,388.31z"/>
						<path style="fill:#FF99A8;" d="M541.404,377.063c-5.93-9.339-5.498-23.935-3.786-25.421c0.579-0.502,1.448-0.421,2.203-0.29
							c6.756,1.165,13.093,4.638,17.71,9.707C551.232,365.157,545.767,370.53,541.404,377.063z"/>
					</g>
					<g>
						<path style="fill:#D1885E;" d="M638.864,388.31c10.627-16.738,9.853-42.897,6.786-45.56c-1.037-0.9-2.596-0.754-3.949-0.521
							c-12.109,2.088-23.466,8.312-31.74,17.396C621.248,366.973,631.044,376.601,638.864,388.31z"/>
						<path style="fill:#FF99A8;" d="M635.761,377.063c5.93-9.339,5.498-23.935,3.786-25.421c-0.578-0.502-1.448-0.421-2.203-0.29
							c-6.756,1.165-13.093,4.638-17.71,9.707C625.932,365.157,631.398,370.53,635.761,377.063z"/>
					</g>
				</g>
				<path style="fill:#EDE5DA;" d="M646.688,401.324c-0.43-5.15-1.8-10.17-3.35-15.1c-0.48-1.53-1.11-3.59-2.03-5.96
					c-0.48-1.24-1.05-2.57-1.72-3.95c-0.76-1.56-1.65-3.19-2.7-4.84c-0.94-1.48-2.01-2.99-3.24-4.48
					c-2.92-3.56-6.71-7.05-11.67-10.01c-0.22-0.13-0.44-0.26-0.66-0.39c-0.03-0.01-0.06-0.03-0.09-0.05
					c-1.69-0.97-3.52-1.88-5.49-2.71c-0.62-0.27-1.26-0.52-1.92-0.77c-0.4-0.16-0.81-0.31-1.23-0.45c-1.37-0.49-2.8-0.94-4.3-1.35
					c-4.96-1.36-10.65-2.27-17.15-2.59c-0.66-0.03-1.32-0.06-1.99-0.07c-0.67-0.02-1.35-0.03-2.04-0.04h-0.75
					c-0.81,0-1.6,0.01-2.38,0.04c-0.73,0.02-1.45,0.05-2.15,0.09c-0.85,0.05-1.69,0.11-2.51,0.19c-3.94,0.34-7.54,1-10.82,1.89
					c-1.4,0.38-2.74,0.8-4.02,1.26c-0.51,0.19-1.02,0.38-1.51,0.58c-0.64,0.25-1.27,0.52-1.88,0.79c-1.94,0.86-3.75,1.82-5.43,2.85
					c-0.01,0.01-0.03,0.01-0.04,0.02c-0.05,0.02-0.09,0.05-0.14,0.08c-4.99,3.08-8.89,6.82-11.94,10.73
					c-1.15,1.47-2.19,2.95-3.11,4.44c-1.06,1.69-1.98,3.39-2.79,5.04c-0.61,1.26-1.16,2.49-1.65,3.68c-0.9,2.16-1.6,4.19-2.17,5.98
					c-1.56,4.93-2.93,9.95-3.35,15.1c-0.6,7.22,0.98,14.33,4.15,20.74c4.04,8.21,10.68,15.28,18.67,19.99
					c0.42,0.25,0.84,0.5,1.27,0.73c4.57,2.51,10.58,4.33,17.25,5.44c2.95,0.5,6.02,0.85,9.16,1.07c3.88,0.28,7.85,0.34,11.77,0.17
					c1.64-0.06,3.26-0.16,4.87-0.3c2.62-0.22,5.2-0.55,7.7-0.97c6.58-1.11,12.58-2.91,17.29-5.41c0.43-0.23,0.86-0.47,1.29-0.72
					c8.04-4.61,14.66-11.68,18.68-19.91C645.729,415.714,647.289,408.554,646.688,401.324z"/>
				<g>
					<g>
						<circle style="fill:#261816;" cx="562.293" cy="403.82" r="4.25"/>
						<circle style="fill:#261816;" cx="614.872" cy="403.82" r="4.25"/>
					</g>
					<path style="fill:#261816;" d="M593.275,403.883c0,0.069-0.006,0.133-0.013,0.202c-0.025,0.177-0.063,0.347-0.126,0.511
						c-0.019,0.051-0.044,0.107-0.069,0.158c-0.044,0.132-0.114,0.259-0.189,0.372c-0.038,0.063-0.082,0.12-0.126,0.183
						c-0.006,0-0.006,0.006-0.006,0.006c-0.221,0.335-0.448,0.612-0.619,0.77c-0.979,0.953-2.178,1.869-3.542,1.806h-0.006
						c-1.364,0.063-2.557-0.852-3.542-1.806c-0.183-0.177-0.448-0.499-0.688-0.884c-0.013-0.013-0.019-0.019-0.019-0.032
						c-0.019-0.013-0.025-0.032-0.038-0.044c-0.076-0.114-0.133-0.234-0.183-0.36c-0.019-0.044-0.038-0.088-0.057-0.139
						c-0.019-0.044-0.038-0.095-0.05-0.139c-0.006-0.006-0.006-0.006-0.006-0.006c-0.013-0.051-0.032-0.101-0.044-0.158
						c-0.019-0.038-0.025-0.076-0.025-0.114c-0.013-0.057-0.019-0.114-0.025-0.164c-0.013-0.133-0.019-0.271,0.006-0.404
						c0.013-0.076,0.031-0.145,0.051-0.221v-0.006c0.044-0.158,0.107-0.316,0.215-0.448c0-0.019,0.013-0.032,0.025-0.044
						c0.013-0.013,0.025-0.025,0.038-0.038c0.417-0.556,1.149-0.871,1.843-1.048c0.814-0.202,1.66-0.297,2.506-0.271
						c0.846-0.025,1.686,0.069,2.506,0.271c0.688,0.177,1.42,0.492,1.843,1.048c0.013,0.013,0.025,0.025,0.038,0.038
						c0.082,0.101,0.145,0.215,0.183,0.335c0.019,0.057,0.038,0.107,0.057,0.164c0.019,0.07,0.038,0.139,0.044,0.208
						C593.275,403.712,593.275,403.801,593.275,403.883z"/>
					<g>
						<path style="fill:none;stroke:#261816;stroke-width:2;stroke-miterlimit:10;" d="M581.298,410.13
							c0.436,1.624,2.044,2.854,3.725,2.85c0.508-0.001,1.019-0.105,1.474-0.33c2.487-1.227,2.056-4.176,2.056-6.359"/>
						<path style="fill:none;stroke:#261816;stroke-width:2;stroke-miterlimit:10;" d="M595.866,410.13
							c-0.436,1.624-2.044,2.854-3.725,2.85c-0.508-0.001-1.018-0.105-1.474-0.33c-2.487-1.227-2.056-4.176-2.056-6.359"/>
					</g>
					<g>
						<ellipse style="fill:#FF99A8;" cx="558.043" cy="413.98" rx="7.25" ry="5.5"/>
						<ellipse style="fill:#FF99A8;" cx="619.122" cy="413.98" rx="7.25" ry="5.5"/>
					</g>
				</g>
				<path style="fill:#DE9266;" d="M612.589,352.614c-1.06,1.43-2.01,2.95-2.95,4.49c-0.1,0.15-0.2,0.3-0.29,0.46
					c-0.94,1.51-1.88,3.03-2.93,4.45c-3.18,4.32-7.85,8.5-11.91,9.69c-3.04,0.89-6.73,1.39-11.3-0.21
					c-4.77-1.68-8.94-5.16-12.12-9.48c-2.35-3.2-4.19-6.86-6.61-9.98c1.28-0.46,2.62-0.88,4.02-1.26c3.28-0.89,6.88-1.55,10.82-1.89
					c0.82-0.08,1.66-0.14,2.51-0.19c0.7-0.04,1.42-0.07,2.15-0.09c0.78-0.03,1.57-0.04,2.38-0.04h0.75
					c0.69,0.01,1.37,0.02,2.04,0.04c0.67,0.01,1.33,0.04,1.99,0.07c6.5,0.32,12.19,1.23,17.15,2.59
					C609.789,351.674,611.219,352.124,612.589,352.614z"/>
				<g>
					<g>
						<path style="fill:none;stroke:#261816;stroke-width:2;stroke-miterlimit:10;" d="M626.974,408.565
							c5.771-1.842,11.795-2.526,17.75-2.016"/>
						<path style="fill:none;stroke:#261816;stroke-width:2;stroke-miterlimit:10;" d="M627.264,404.445
							c4.835-2.633,9.946-4.283,15.102-4.875"/>
						<path style="fill:none;stroke:#261816;stroke-width:2;stroke-miterlimit:10;" d="M628.078,412.527
							c5.298-0.346,10.558,0.344,15.543,2.041"/>
					</g>
					<g>
						<path style="fill:none;stroke:#261816;stroke-width:2;stroke-miterlimit:10;" d="M550.19,408.565
							c-5.771-1.842-11.795-2.526-17.75-2.016"/>
						<path style="fill:none;stroke:#261816;stroke-width:2;stroke-miterlimit:10;" d="M549.901,404.445
							c-4.835-2.633-9.946-4.283-15.102-4.875"/>
						<path style="fill:none;stroke:#261816;stroke-width:2;stroke-miterlimit:10;" d="M549.086,412.527
							c-5.298-0.346-10.558,0.344-15.543,2.041"/>
					</g>
				</g>
				<path style="fill:#DE9266;" d="M642.572,422.154c-4.02,8.23-10.64,15.3-18.68,19.91c-0.43,0.25-0.86,0.49-1.29,0.72
					c-4.71,2.5-10.71,4.3-17.29,5.41c-2.5,0.42-5.08,0.75-7.7,0.97c-1.61,0.14-3.23,0.24-4.87,0.3c0.9-2.49,2.62-4.7,4.85-6.15
					c4.13-2.69,9.6-2.78,13.57-5.69c3.25-2.38,4.98-6.26,7.55-9.37C624.312,421.504,634.412,419.164,642.572,422.154z"/>
				<path style="fill:#DE9266;" d="M556.785,362.294c-2.373,2.373-2.411,6.584-0.483,9.331c1.927,2.746,5.809,3.927,8.939,2.718
					c1.466-0.566,2.88-1.578,3.461-3.038C570.544,366.676,562.598,356.481,556.785,362.294z"/>
			</g>
		</g>
		<g>
			<defs>
				<path id="SVGID_00000126303714438212427900000004713905485240379814_" d="M507.148,335.45v120.71
					c0,11.644,9.435,21.079,21.079,21.079h60.355V314.371h-60.355C516.583,314.371,507.148,323.806,507.148,335.45z"/>
			</defs>
			<clipPath id="SVGID_00000030466105193683607170000005959505145551164069_">
				<use xlink:href="#SVGID_00000126303714438212427900000004713905485240379814_"  style="overflow:visible;"/>
			</clipPath>
			<g style="clip-path:url(#SVGID_00000030466105193683607170000005959505145551164069_);">
				<g>
					<g>
						<path style="fill:#98B0B8;" d="M557.578,362.556c-0.76,3.33-2.4,6.38-4.34,9.22c-0.53,0.8-1.1,1.58-1.67,2.34
							c-1.56,2.08-3.36,3.94-5.36,5.45c-1.81,1.38-3.79,2.46-5.93,3.16c-7.46,2.47-16.21-1.25-20.41-7.89
							c-4.19-6.65-4.04-15.54-0.45-22.53c4.31-8.42,14.04-14.25,23.33-12.46c4.95,0.96,9.47,3.99,12.22,8.21
							C557.728,352.285,558.688,357.635,557.578,362.556z"/>
						<path style="fill:#FF99A8;" d="M553.238,371.776c-0.53,0.8-1.1,1.58-1.67,2.34c-1.56,2.08-3.36,3.94-5.36,5.45
							c-3,0.56-6.23,0.22-9.12-0.84c-3.06-1.12-5.9-3.02-7.75-5.71c-1.85-2.68-2.6-6.2-1.59-9.3c1.01-3.1,3.93-5.6,7.18-5.72
							c-0.71-3.66,2.68-7.27,6.39-7.59c3.72-0.32,7.29,2.02,9.36,5.12C553.808,360.206,553.948,366.065,553.238,371.776z"/>
					</g>
					<g>
						<path style="fill:#98B0B8;" d="M619.587,362.556c0.76,3.33,2.4,6.38,4.34,9.22c0.53,0.8,1.1,1.58,1.67,2.34
							c1.56,2.08,3.36,3.94,5.36,5.45c1.81,1.38,3.79,2.46,5.93,3.16c7.46,2.47,16.21-1.25,20.41-7.89
							c4.19-6.65,4.04-15.54,0.45-22.53c-4.31-8.42-14.04-14.25-23.33-12.46c-4.95,0.96-9.47,3.99-12.22,8.21
							C619.437,352.285,618.477,357.635,619.587,362.556z"/>
						<path style="fill:#FF99A8;" d="M623.927,371.776c0.53,0.8,1.1,1.58,1.67,2.34c1.56,2.08,3.36,3.94,5.36,5.45
							c3,0.56,6.23,0.22,9.12-0.84c3.06-1.12,5.9-3.02,7.75-5.71c1.85-2.68,2.6-6.2,1.59-9.3c-1.01-3.1-3.93-5.6-7.18-5.72
							c0.71-3.66-2.68-7.27-6.39-7.59c-3.72-0.32-7.29,2.02-9.36,5.12C623.357,360.206,623.217,366.065,623.927,371.776z"/>
					</g>
				</g>
				<path style="fill:#ADC5CC;" d="M646.692,403.856c-0.43-5.15-1.8-10.17-3.35-15.1c-2.89-9.21-11.11-37.31-56.37-37.66
					c-38.02-0.3-49.07,24.78-53.15,37.66c-1.56,4.93-2.93,9.95-3.35,15.1c-0.6,7.22,0.98,14.33,4.15,20.74
					c4.25,8.64,11.38,16.02,19.94,20.72c16.26,8.92,50.84,9.14,68.04,0c8.62-4.58,15.74-11.96,19.97-20.63
					C645.732,418.246,647.292,411.086,646.692,403.856z"/>
				<g>
					<circle style="fill:#261816;" cx="562.293" cy="392.524" r="4.25"/>
					<circle style="fill:#261816;" cx="614.872" cy="392.524" r="4.25"/>
				</g>
				<g>
					<ellipse style="fill:#FF99A8;" cx="554.63" cy="402.274" rx="7.25" ry="5.5"/>
					<ellipse style="fill:#FF99A8;" cx="622.535" cy="402.274" rx="7.25" ry="5.5"/>
				</g>
				<path style="fill:#EBEDED;" d="M611.978,420.205c-0.244,3.543-1.054,7.147-2.993,10.14c-3.008,4.627-8.476,7.239-13.943,8.018
					c-1.726,0.244-3.39,0.382-4.963,0.412c-0.489,0.015-0.992,0.031-1.497,0.031c-0.504,0-1.008-0.015-1.497-0.031
					c-1.573-0.031-3.238-0.168-4.963-0.412c-5.482-0.779-10.934-3.39-13.943-8.018c-1.955-2.993-2.749-6.597-2.993-10.14
					c-0.657-9.27,2.184-18.494,6.399-26.755c2.306-4.505,5.314-8.934,9.835-11.209c2.306-1.161,4.734-1.863,7.071-1.863h0.183
					c2.336,0,4.765,0.702,7.071,1.863c4.52,2.275,7.529,6.704,9.819,11.209C609.794,401.711,612.635,410.935,611.978,420.205z"/>
				<g>
					<path style="fill:#261816;" d="M603.902,414.354c-0.16,2.32-0.69,4.68-1.96,6.64c-1.97,3.03-5.55,4.74-9.13,5.25
						c-1.13,0.16-2.22,0.25-3.25,0.27c-0.32,0.01-0.65,0.02-0.98,0.02s-0.66-0.01-0.98-0.02c-1.03-0.02-2.12-0.11-3.25-0.27
						c-3.59-0.51-7.16-2.22-9.13-5.25c-1.28-1.96-1.8-4.32-1.96-6.64c-0.43-6.07,1.43-12.11,4.19-17.52
						c1.51-2.95,3.48-5.85,6.44-7.34c1.51-0.76,3.1-1.22,4.63-1.22h0.12c1.53,0,3.12,0.46,4.63,1.22c2.96,1.49,4.93,4.39,6.43,7.34
						C602.472,402.244,604.332,408.284,603.902,414.354z"/>
					<g>
						<path style="fill:none;stroke:#261816;stroke-width:2;stroke-miterlimit:10;" d="M581.069,428.874
							c0.436,1.624,2.044,2.854,3.725,2.85c0.508-0.001,1.019-0.105,1.474-0.33c2.487-1.227,2.056-4.176,2.056-6.359"/>
						<path style="fill:none;stroke:#261816;stroke-width:2;stroke-miterlimit:10;" d="M595.637,428.874
							c-0.436,1.624-2.044,2.854-3.725,2.85c-0.508-0.001-1.019-0.105-1.474-0.33c-2.487-1.227-2.056-4.176-2.056-6.359"/>
					</g>
				</g>
			</g>
		</g>
		
			<line style="fill:none;stroke:#BCE8E1;stroke-width:5;stroke-linecap:round;stroke-miterlimit:10;" x1="588.582" y1="305.906" x2="588.582" y2="485.704"/>
	</g>
	<text transform="matrix(1 0 0 1 123.9005 70.1895)" style="fill:#FFFCFC; font-family:'Gilroy-ExtraBold'; font-size:55px;">Match the Pictures </text>
</g>
</svg>
