<?xml version="1.0" encoding="utf-8"?>
<!-- Generator: Adobe Illustrator 27.5.0, SVG Export Plug-In . SVG Version: 6.00 Build 0)  -->
<svg version="1.1" id="Ñëîé_1" xmlns="http://www.w3.org/2000/svg" xmlns:xlink="http://www.w3.org/1999/xlink" x="0px" y="0px"
	 viewBox="0 0 1200 1200" style="enable-background:new 0 0 1200 1200;" xml:space="preserve">
<rect y="0" style="fill:#FFFFFF;" width="1200" height="1200"/>
<g>
	<g>
		<g>
			<g>
				<rect x="740.389" y="705.071" style="fill:#4C5D6B;" width="39.691" height="53.433"/>
				<g>
					<path style="fill:#4C5D6B;" d="M801.965,964.568c0,7.532-0.975,14.729-2.738,21.375h-77.995
						c-1.759-6.645-2.726-13.842-2.726-21.375c0-2.026,0.07-4.029,0.214-6.005c1.844-26.758,15.898-48.334,34.036-53.067
						c-8.114-13.842-13.893-49.558-13.893-91.439c0-7.563,0.182-14.92,0.55-21.986c-9.558-2.575-15.817-6.859-15.817-11.725
						c0-6.005,9.537-11.134,23.045-13.232c-13.508-2.094-23.045-7.226-23.045-13.231c0-7.869,16.398-14.25,36.642-14.25
						c2.178,0,4.315,0.072,6.392,0.214c17.19,1.182,30.248,7.012,30.248,14.036c0,6.005-9.545,11.137-23.043,13.231
						c13.497,2.097,23.043,7.227,23.043,13.232c0,4.866-6.269,9.149-15.815,11.725c0.357,7.065,0.548,14.423,0.548,21.986
						c0,41.881-5.782,77.597-13.902,91.439C787.186,910.576,801.965,935.085,801.965,964.568z"/>
					<path style="fill:#303942;" d="M801.965,964.568c0,7.532-0.975,14.729-2.738,21.375h-77.995
						c-1.759-6.645-2.726-13.842-2.726-21.375c0-2.026,0.07-4.029,0.214-6.005c12.284,7.258,25.659,9.659,38.007,0.173
						c12.184-9.354,16.184-29.527,9.699-42.767c-4.266-8.712-4.386-7.583-2.749-16.488c1.485-8,2.606-16.457,3.002-24.479
						c1.05-21.25,8.265-80.599-20.001-84.445c5.771-2.17,15.402-2.332,19.26-8.918c4.78-8.153-3.147-17.79-12.387-16.761
						c8.985-8.398,31.795-11.36,13.078-25.029c17.19,1.182,30.248,7.012,30.248,14.036c0,6.005-9.545,11.137-23.043,13.231
						c13.497,2.097,23.043,7.227,23.043,13.232c0,4.866-6.269,9.149-15.815,11.725c0.357,7.065,0.548,14.423,0.548,21.986
						c0,41.881-5.782,77.597-13.902,91.439C787.186,910.576,801.965,935.085,801.965,964.568z"/>
				</g>
			</g>
			<g>
				<g>
					<g>
						<path style="fill:#48A4FF;" d="M1028.742,333.941c9.139,48.198,6.276,95.897-6.454,139.949
							c-15.918,55.022-47.239,104.368-89.874,141.918c-38.272,33.728-85.669,57.951-139.203,68.238
							c-147.382,28.319-290.141-58.772-336.739-198.473c-4.282-12.803-7.747-26.049-10.333-39.687
							c-21.047-111.02,21.547-219.381,101.998-286.721c3.352-2.819,6.761-5.544,10.246-8.204
							c35.21-26.925,76.955-46.267,123.302-55.173c67.026-12.878,133.1-1.888,189.6,27.081
							C950.409,163.416,1010.778,239.181,1028.742,333.941z"/>
						<g>
							<path style="fill:#A2E363;" d="M1022.288,473.89l-5.164,1.735l-7.359,8.288c0,0-7.151,2.66-8.307,3.31
								c-1.149,0.65-4.359,1.697-5.355,3.175c-0.992,1.487-1.718-0.102-5.589,1.941c-3.865,2.03-5.249,1.438-3.653-3.597
								c1.593-5.035-0.284-5.962-1.319-9.191c-1.039-3.233,3.485-6.258-4.788-5.096c-8.298,1.163-9.02-0.412-14.13,4.001
								c-5.118,4.424-9.012,8.605-9.012,8.605l-6.377-2.209c0,0-7.892-5.784-9.201-5.959c-1.307-0.179-6.238,0.769-6.238,0.769
								s-2.021-3.912-1.898-7.807c0.11-3.882-1.363-4.886-3.589-3.169c-2.222,1.714-6.271,5.064-6.271,5.064
								s-7.23,2.246-11.265,5.608c-4.048,3.35-4.143,5.084-11.69,5.675c-7.541,0.593-6.697,7.304-13.149,4.684
								c-6.45-2.633-9.56-3.321-12.572-5.757c-3.016-2.422-4.342-0.452-2.699,3.749c1.645,4.195,6.825,2.332,1.641,5.262
								c-5.184,2.932-8.564,0.789-6.326,7.021c2.247,6.224,3.274,10.534,1.436,10.888c-1.853,0.358-7.079-3.59-4.573-8.358
								c2.502-4.771-1.008-6.461-1.008-6.461s0.842-3.383,2.821-4.192c1.971-0.807,2.747-5.686-1.035-4.311
								c-3.78,1.366-3.921-0.536-4.286,3.188c-0.361,3.721-1.023,4.707-4.726,6.484c-3.703,1.788-4.309,0.827-6.782,3.458
								c-2.49,2.621,0.546,2.896-3.761,3.724c-4.319,0.832-5.313,2.31-4.686,5.622c0.631,3.32-0.77,3.806-2.218,6.229
								c-1.452,2.426-1.786,2.919-2.915,4.851c-1.112,1.941-0.755,2.73-0.797,3.594c-0.054,0.869-1.612,1.599-2.714,1.378
								c-1.106-0.213-2.9-1.805-7.068-3.576c-4.166-1.786-6.828-2.34-11.126-1.516c-4.307,0.83-6.319,10.453-12.829,8.69
								c-6.498-1.754-5.996-2.499-9.917-4.109c-3.919-1.6-2.965-2.213-4.178-5.21c-1.209-2.983-2.516-3.159-1.34-5.96
								c1.168-2.807,1.056-4.503-0.129-9.643c-1.189-5.144,1.384-12.934-2.707-14.301c-4.091-1.357,3.834-3.312-7.94-1.477
								c-11.773,1.833-9.987-1.094-17.557,1.66c-7.554,2.735-11.666,4.594-13.962,4.824c-2.303,0.225-5.946,0.065-2.554-4.447
								c3.4-4.524,5.311-2.319,4.199-7.031c-0.701-2.984-1.89-5.433-1.975-6.598c-0.077-0.696,0.239-0.934,1.257-0.575
								c0.01-0.004,0.013,0.007,0.023,0.004c1.863,0.657,3.021-0.349,3.954-1.816c0.434-0.668,0.83-1.434,1.212-2.191
								c1.247-2.383-3.873-5.905-0.245-10.255c3.651-4.354,6.948-7.131,0.382-5.869c-6.56,1.258-1.824-2.875-10.282-0.389
								c-8.46,2.482-8.34,2.031-8.238,4.805c0.104,2.774-7.031-1.233-2.902,4.858c4.124,6.07,4.966,9.351,2.373,10.277
								c-2.587,0.925-0.66-0.094-6.784,2.37c-6.118,2.473-9.164,7.779-11.392,4.982c-2.23-2.794,0.282-4.134-4.438-3.228
								c-4.718,0.907-4.983,2.893-7.842-3.22c-2.857-6.106-10.935-10.57-7.867-11.16c3.089-0.591,2.043-3.823-0.054-7.072
								c-2.108-3.246-2.602-8.088-3.311-11.824c-0.705-3.72-2.131-10.104,0.967-8.343c3.102,1.768,3.037,0.274,2.292-3.663
								c-0.747-3.926-4.547-5.992-2.745-9.988c1.791-4.008-0.838-3.279,4.11-6.375c4.944-3.095,3.263-2.989,8.551-4.216
								c5.301-1.239,5.288-0.159,6.913-2.835c1.618-2.675-1.056-6.673,2.045-4.902c3.102,1.768,1.554,1.418,7.002-0.059
								c5.471-1.479,8.983,0.211,8.786-4.157c-0.189-4.369-2.523-4.347,3.967-6.025c6.479-1.672,9.493-2.682,12.398-3.029
								c2.917-0.343,2.726-2.45,4.012,0.955c1.278,3.405,4.292,1.318,6.672,0.431c2.381-0.886,1.952-4.244,4.608-2.6
								c2.649,1.636,8.012,2.971,9.51,5.254c1.502,2.284,2.718,3.13,2.446,7.262c-0.284,4.132-2.058,5.981,0.795,7.578
								c2.85,1.598,3.886,0.332,4.684,3.399c0.786,3.062,3.757,5.284,4.243,6.697c0.473,1.414,3.96,1.813,4.915,1.203
								c0.94-0.611,4.589-4.964-0.573-15.355c-5.17-10.389-3.402-11.159-5.966-16.889c-2.581-5.729-3.73-6.157-1.048-12.248
								c2.666-6.098,3.141-8.126,7.049-11.021c3.913-2.905,5.118-4.425,7.464-10.023c2.336-5.606,5.099-7.853,8.857-10.512
								c3.742-2.652,0.156-2.499-0.135-4.586c-0.286-2.102,2.581-1.575,4.104-3.05c1.521-1.474,2.805-2.043,1.562-3.522
								c-1.234-1.477-3.201,1.046-3.145-0.358c0.041-1.409,3.909-4.621,2.543-5.645c-1.363-1.026-3.002-1.245-4.938,0.3
								c-1.942,1.564-4.342,1.262-3.664-0.259c0.662-1.519,2.498,0.272,1.299-3.797c-1.201-4.057-4.942-8.706-4.025-11.14
								c0.917-2.427,0.932-4.586,2.338,1.693c1.4,6.29,1.799,12.868,4.313,10.448c2.527-2.412,4.691-4.437,2.452-7.878
								c-2.255-3.436-4.987-4.941-1.871-4.254c3.102,0.691,3.278,4.949,4.958,2.051c1.687-2.898,4.155-6.166,1.913-7.89
								c-2.243-1.714-1.255-4.374-1.419-5.731c-0.147-1.376-2.759-2.798,0.614-3.553c3.365-0.759,6.807,0.618,7.809-2.576
								c0.977-3.202,2.16-4.287-0.041-3.541c-2.199,0.747-4.386,3.209-5.902,3.073c-1.508-0.14,2.077-3.09,5.338-4.355
								c3.272-1.279-0.095-1.59,3.174-2.333c3.268-0.734,7.346-0.545,7.033-2.743c-0.313-2.201-3.842-3.992-4.936-3.028
								c-1.091,0.965-2.05,0.396-2.323-1.594c-0.272-1.988,1.869-3.58,2.349-6.141c0.469-2.557,3.761-7.104,4.745-8.027
								c0.998-0.914,5.5,0.743,5.751-2.423c0.247-3.177,0.164-4.371,0.656-4.719c0.517-0.349,2.203,0.362,2.809-1.698
								c0.593-2.071,1.131-6.505,1.946-3.619c0.817,2.888-0.039,3.566,2.112,0.871c2.131-2.692,2.57-5.632,3.05-3.87
								c0.481,1.769,1.595,2.855,2.429,1.396c0.824-1.446,1.268,1.659-0.181,2.21c-1.465,0.542-4.95-2.324-4.06,0.99
								c0.894,3.311-0.956,1.241-0.726,4.2c0.226,2.957,1.407,9.175,4.388,5.454c2.985-3.722,1.967-5.86,4.097-8.171
								c2.139-2.327,5.738-5.039,5.738-5.039l2.904-5.403c0,0,2.477-2.347-0.761-1.725c-3.23,0.62-2.328-0.128-4.689,1.202
								c-2.375,1.338-3.618,1.346-5.199,0.383c-1.581-0.962-1.38-1.432-4.22-0.734c-2.855,0.693-3.245,1.302-5.469-2.885
								c-2.226-4.185,2.352-4.753-2.226-4.185c-4.566,0.553-4.116,0.684-6.618,2.076c-2.504,1.391-3.67,0.86-2.197-0.927
								c1.467-1.776,3.761-1.477,5.904-3.069c2.143-1.583,6.012-1.898,3.17-4.26c-2.83-2.356-6.842-2.222-6.842-2.222l-8.305,5.56
								l-4.682,6.172c0,0-2.23,4.53-3.521,7.237c-1.299,2.71-3.792,5.228-2.707,2.006c1.091-3.211,2.469-8.309,4.357-11.248
								c1.886-2.946,3.353-4.231,5.141-6.542c1.799-2.313,0.687-7.035,3.666-8.142c2.979-1.118,5.958-1.365,11.302-3.031
								c5.357-1.676,11.526-3.292,13.29-4.709c1.753-1.403,1.678-3.177,2.068-5.26c0.402-2.088,0.519-1.745,3.431-3.057
								c2.913-1.309,2.228-4.903,1.89-6.701c-0.34-1.788-3.772-1.848-4.757-4.099c-0.983-2.236-0.61-4.316-2.114-2.742
								c-1.494,1.584-0.369,4.509-1.566,3.446c-1.191-1.053,0.612-4.977-2.649-3.494c-3.261,1.485-1.857-0.072-4.404,4.423
								c-2.552,4.511-4.674,4.194-3.251,0.624c1.409-3.564,5.309-6.207,6.552-7.147c1.245-0.93-2.88-0.996-7.261-0.874
								c-4.371,0.127-7.466-1.286-8.751-2.044c-1.282-0.748-3.05-0.408-3.46-0.33c-0.409,0.079-1.388-1.313-6.386-4.505
								c-4.998-3.193-11.473-7.389-14.777-9.902c-3.317-2.514-4.726-6.957-4.597-2.545c0.133,4.406,2.844,6.032,0.404,8.081
								c-2.46,2.041-1.234,2.67-3.726,4.009c-2.502,1.339-1.689,0.608-4.073,0.208c-2.394-0.398-4.386,1.846-4.867,0.079
								c-0.483-1.772,4.649-0.184-0.22-3.403c-4.859-3.218-2.12-1.443-2.556-4.518c-0.44-3.068-6.402-2.346-9.981-2.518
								c-3.574-0.172-2.137-2.312-6.836-1.69c-4.714,0.611-7.813,0.496-9.041,0.451c-1.245-0.054-9.458-0.042-9.458-0.042
								s-3.745-3.301-2.998,1.422c0.755,4.729,0.832,5.142,1.201,7.08c0.365,1.929,3.176,4.358,3.176,4.358s2.506-2.624,3.432-1.087
								c0.935,1.534-4.425,3.538-5.668,4.846c-1.234,1.312-2.093,0.726,1.461,2.627c3.548,1.892,6.334,1.994,7.338,3.413
								c1.017,1.416,2.778,3.986,2.778,3.986s3.618,1.659,2.01,2.187c-1.602,0.516-1.193,0.981-2.861,4.526
								c-1.672,3.541-4.38,6.093-6.469,7.361c-2.106,1.262-2.375,1.525-1.006,4.274c1.371,2.74,3.751,1.853,4.78,4.447
								c1.021,2.59-0.749,1.234,1.904,4.396c2.628,3.166,2.628,3.166,2.628,3.166s-2.452-1.62-0.674,1.039
								c1.78,2.664,2.012,4.981-0.147,2.603c-2.149-2.38-1.487-3.366-2.641-1.639c-1.168,1.723-1.328,1.973,0.276,3.704
								c1.602,1.732,3.685,4.878,1.88,3.184c-1.815-1.69-2.346-3.952-4.409-2.479c-2.064,1.466-3.236,3.644-4.305,3.63
								c-1.07-0.023-0.452-2.935-0.452-2.935l1.185-4.415l-3.672-1.982c0,0-4.479,2.265-3.176-0.143
								c1.317-2.396-1.681-2.469-2.604-2.295c-0.927,0.181-4.328-1.521-1.969-1.973c2.361-0.454,2.689-0.307,3.352-2.154
								c0.676-1.842-1.487-3.687-2.461-4.891c-0.975-1.214-0.143-4.702-3.222-4.107c-3.081,0.591-8.153,2.418-9.321,1.892
								c-1.164-0.516-3.135-1.97-5.614-2.14c-2.467-0.164-5.371,1.353-6.489,1.685c-1.1,0.316-0.741-1.657-1.757-2.55
								c-1.019-0.893-4.176-1.257-5.016-1.203c-0.838,0.059-2.205,0.101-2.205,0.101s-2.208-0.433-2.699-3.019
								c-0.492-2.592-2.693-4.637-3.956-2.891c-1.255,1.738-2.278,3.662-2.278,3.662s-4.01-3.749-3.95-5.685
								c0.054-1.946,1.973-1.352,1.558-3.522c-0.411-2.181,0.176-0.243,1.39-3.384c1.21-3.133,0.921-5.752,3.979-5.913
								c3.056-0.157,5.093-0.015,4.539-4.093c-0.56-4.089-1.012-8.721,1.135-10.848c2.151-2.138,0.446,0.123,3.193-2.771
								c2.759-2.882,4.691-4.436,2.525-4.67c-2.176-0.216-3.251,1.379-5.068,0.223c-1.815-1.157-4.697-1.774-1.154-2.143
								c3.548-0.358,5.612,1.505,7.155,0.676c1.541-0.84,3.338-3.653,3.587-4.562c0.257-0.905,1.012,0.238,1.714-1.082
								c0.714-1.318-0.199-2.21,2.371-1.531c2.579,0.687,3.558,0.822,3.296-1.166c-0.278-1.988,1.965-3.056,1.649-4.721
								c-0.313-1.656-2.046-0.142-3.297-2.799c-1.249-2.659-2.602-4.762-3.871-5.273c-1.268-0.509-3.12-1.866-4.523-0.31
								c-1.4,1.566-2.313,1.845-1.689,3.441c0.625,1.596,0.137,3.518,0.137,3.518s-0.72,0.674-2.297,3.016
								c-1.579,2.344-0.51,6.322-3.014,2.076c-2.502-4.236-2.404-5.972-4.126-6.07c-1.714-0.1-1.616-0.118-2.994,0.469
								c-1.386,0.58-1.494,0.495-3.693,0.712c-2.197,0.201-3.253-0.882-3.16,0.71c0.085,1.594,0.479,3.133,1.338,3.174
								c0.857,0.044-0.083,0.664-2.305,2.378c-2.224,1.716-3.097,2.742-3.097,2.742s3.182,1.103,1.612,2.378
								c-1.564,1.262-1.158,1.718-2.172,1.378c-1.029-0.335-3.056-0.917-2.55-2.731c0.504-1.813-0.006-0.636,0.871-2.741
								c0.873-2.101,2.257-3.227,2.265-3.761c-0.008-0.542-1.51-1.749-3.666-2.516c-2.176-0.767-3.882-2.478-5.166-0.84
								c-1.28,1.648-2.626,2.972-2.917,3.677c-0.292,0.696,2.226,0,3.22,0.138c0.975,0.134,2.089,2.063,2.089,2.063
								s0.116,1.162-0.934,1.793c-1.054,0.63-2.635,1.791-2.635,1.791s2.73,1.515-2.919,0.344
								c-5.639-1.167-7.705-2.487-12.543-3.921c-4.844-1.437-5.465-3.563-6.284-1.159c-0.815,2.417,1.62,2.377-1.768,3.563
								c-3.39,1.185-3.861,0.95-4.425,2.46c-0.564,1.501-0.463,3.741-0.463,3.741l0.143,1.909c0,0-0.875,2.091-1.263,2.281
								c-0.39,0.182-1.701,0.004-2.17-0.233c-0.467-0.232,0.21-2.832,0.112-3.348c-0.095-0.514-2.131-2.812-2.131-2.812
								s-1.925-2.31-3.689-1.541c-1.772,0.759-4.813,1.562-4.813,1.562s-5.34-0.688-5.18-1.472c0.183-0.787,2.942-1.321,2.647-1.795
								c-0.313-0.484,0.608-1.269-2.753-1.007c-3.35,0.244-8.636-0.142-9.107-2.627c-0.469-2.48-2.477-2.421-5.326-1.757
								c-2.859,0.657-0.602-2.572-3.765-0.783c-3.174,1.793-5.081,0.684-5.081,0.684s0.969-1.609-4.043-0.543
								c-5.006,1.068-3.328,0.964-5.431,2.227c-2.091,1.26-2.313,0.642-2.776-0.658c-0.454-1.304-2.792-1.283-4.292-0.775
								c-1.5,0.496-2.523,1.874-2.523,1.874s-0.295-1.554-2.133-3.985c-1.842-2.438,0.035-2.046-3.114-2.414
								c-3.151-0.355-6.608-1.199-4.774-2.734c1.84-1.536,5.002-4.496,2.197-5.788c-2.794-1.294-2.344-1.693-6.265,0.022
								c-3.929,1.728-5.595,0.219-6.662,2.464c-1.056,2.242,0.546,1.725-3.558,4.229c-4.095,2.505-3.257,1.368-4.753,4.671
								c-1.502,3.289-1.421,4.248-2.257,3.227c-0.828-1.026-0.419-4.44,1.1-7.087c0.645-1.137,1.651-3.581,2.245-5.545
								c0.013-0.044,0.023-0.088,0.037-0.132c-3.471,2.674-6.879,5.423-10.217,8.24c-0.029,0.027-0.05,0.063-0.066,0.096
								c-0.774,0.996-1.214,2.022-1.162,3.214c0.212,4.113,3.16,5.463,0.263,6.638c-2.894,1.173-3.427,3.563-5.05,4.023
								c-1.612,0.457-0.786-1.135-4.794-0.659c-1.996,0.248-3.066,0.025-4.203,0.245c-5.344,5.158-10.481,10.517-15.42,16.057
								c3.857,3.236,4.095,6.192,4.095,6.192l-6.574,6.577l-9.504,4.809c0,0,4.07,2.335,9.946-0.351
								c5.867-2.708,8.19-10.678,8.533-7.732c0.349,2.936-2.879,4.992-4.348,7.355c-1.461,2.352,6.228-1.921,7.481-4.314
								c1.249-2.386,1.643-10.412,4.218-9.179c2.575,1.22,3.494,3.834,3.494,3.834l-2.819,4.193l5.612,1.559l8.361,2.631
								c0,0,0.411-0.076,0.427,2.274c0.027,2.358-1.253,3.105-0.392,3.87c0.851,0.768,0.757,0.714-0.11,3.024
								c-0.853,2.319-2.048,5.049-2.158,6.001c-0.099,0.951,1.714,1.176,1.992-0.382c0.272-1.55,0.83-3.811,0.83-3.811
								s1.707-5.266,2.419-4.829c0.724,0.428,1.481,1.789,1.481,1.789l-1.166,5.443c0,0,0.042,1.364,0.006,2.654
								c-0.042,1.298,0.421,1.489-0.156,2.178c-0.575,0.684-2.556-1.519-0.575,0.684c1.969,2.197,1.419,2.302,0.681,3.592
								c-0.753,1.287-1.737,1.77-0.328,2.638c1.417,0.867,2.533-2.203,3.371-1.505c0.848,0.694,1.537-0.152,1.44,1.585
								c-0.095,1.733,2.216,2.294,0.782,3.574c-1.429,1.268-4.141-0.636-4.94-0.202c-0.79,0.434-1.214,0.433-1.276,1.637
								c-0.064,1.195-0.919,1.934,0.477,2.524c1.388,0.589,0.087,1.991,0.108,2.845c0.025,0.854,6.813-3.746,4.514-0.869
								c-2.282,2.869-2.807,3.114-3.205,5.484c-0.411,2.369-1.543,4.593,0.237,4.253c1.778-0.343,2.674-3.099,3.765-3.31
								c1.097-0.211,0.604,1.173-0.508,2.682c-1.104,1.5-3.695,0.564-4.174,2.518c-0.479,1.955-0.861,2.174-1.884,3.511
								c-1.031,1.337-0.836,1.593,1.075,2.661c1.902,1.067,5.695-1.671,5.22-1.004c-0.463,0.666-1.185,0.805-1.765,1.836
								c-0.593,1.043-1.237,2.499,0.185,1.971c1.425-0.525,2.398-1.033,2.975-1.751c0.57-0.716,2.475-2.413,1.579-0.807
								c-0.898,1.606-1.826,1.355-1.44,2.465c0.384,1.107,0.674,0.225,0.743,1.352c0.068,1.135,0.199,1.824,0.813,2
								c0.593,0.176,1.774-0.698,1.94-1.303c0.172-0.612,1.494-1.148,1.021,0.085c-0.481,1.242-1.693,2.333-0.863,3.315
								c0.82,0.992,1.61,1.772,1.61,1.772l-0.469,2.38l0.438,3.851c0,0-0.166,3.597-0.751,5.709
								c-0.593,2.121-1.282,6.681-1.282,6.681l-1.931,0.37l-0.936-7.185c0,0-1.481-4.109-1.973-4.444
								c-0.488-0.336-1.523-0.545-1.938,0.97c-0.419,1.513-0.502,3.372-0.502,3.372s0.479,1.693-0.039,2.798
								c-0.496,1.1-0.423,3.711-0.423,3.711s-2.504,1.726-3.34,6.324c-0.826,4.604-1.9,4.79-2.06,8.534
								c-0.139,3.751,1.614,5.557-1.272,8.255c-2.888,2.702-3.684,1.569-3.9,5.618c-0.228,4.049,1.321,4.033,0.209,7.826
								c-1.126,3.792-2.214,4.001-1.948,6.954c0.274,2.96-0.299,6.01,0.164,8.39c0.458,2.371-0.973,4.655,1.128,5.966
								c2.106,1.31,1.12,1.366,2.106,1.31c0.987-0.041,0.481-1.233,2.597-0.496c2.122,0.743,3.342-1.072,2.122,0.743
								c-1.212,1.801-1.633,2.604-1.633,2.604s-1.16-0.928-1.201,1.09c-0.044,2.006-1.865,2.199-1.398,3.125
								c0.454,0.916,2.417,2.264,2.417,2.264s-3.236,0.907-0.967,3.9c2.28,3.004,1.869,2.372,2.365,4.985
								c0.494,2.627,1.527,4.291,1.527,4.291l3.073,3.52l2.564,2.268c0,0-1.763,0.484,1.805,2.091
								c3.566,1.604,2.479-2.619,4.249,2.187c1.763,4.818,1.886,6.938,1.886,6.938l2.767,2.47c0,0,1.114,1.606,1.643,5.105
								c0.519,3.509,0.239,1.272,1.05,5.553c0.813,4.279,0.998,5.247,3.189,7.838c2.187,2.582,6.149,3.254,7.151,4.777
								c0.996,1.527,1.649,4.977,1.649,4.977s0.365,1.218,1.17,3.219c0.811,1.986,0.017,1.566-2.145-0.167
								c-2.18-1.721-3.238,0.907-3.238,0.907s-0.093,1.744,2.052,3.33c2.135,1.596,5.757,4.186,5.757,4.186s0.932-1.038,2.433,2.398
								c1.51,3.434,2.197,2.299,2.716,5.201c0.521,2.911,0.139,6.859,5.518,9.83c5.381,2.972,2.612,1.791,5.369,5.841
								c2.747,4.045,5.419,6.176,7.618,7.293c2.205,1.122,9.101,6.16,4.102-0.788c-5.004-6.935-6.784-6.144-8.801-8.426
								c-2.016-2.27-0.898-5.342-4.4-11.833c-3.494-6.485-8.359-12.673-10.097-17.37c-1.741-4.69-2.392-9.669-7.512-17.157
								c-5.099-7.497-8.178-11.767-4.481-10.188c3.709,1.581,7.072-3.074,8.245,1.566c1.16,4.652,2.763,11.635,2.763,11.635
								s0.241,1.253,4.618,7.849c4.371,6.608,6.334,6.514,7.964,7.632c1.633,1.121,3.568,5.329,3.568,5.329s6.489,1.328,6.911,3.541
								c0.419,2.208-2.261,1.571,1.099,5.802c3.346,4.222-0.662,0.986,3.346,4.222c4.012,3.235,6.989,6.962,6.989,6.962
								l10.529,9.141c0,0,0.473,2.483,2.689,5.216c2.218,2.723,5.01,1.935,3.604,4.567c-1.421,2.626-3.759,3.727-2.392,4.218
								c1.367,0.489,1.747,0.845,0.983,1.849c-0.774,1.008,3.104,3.809,5.249,7.685c2.155,3.887,4.143,3.932,7.224,5.913
								c3.058,1.986,2.929,2.013,5.12,4.605c2.189,2.581-0.282,0.765,5.427,1.676c5.703,0.902,8.406,3.251,9.792,3.841
								c1.386,0.592,4.031,0.66,13.726,3.524c0.019,0.008,0.033,0.016,0.054,0.022c9.647,2.845,12.537,4.641,17.103,5.272
								c4.589,0.612,5.554,2.364,8.684,0.904c3.133-1.46,4.421-3.642,6.668-2.998c2.245,0.647,1.485,3.356,4.039,1.147
								c2.564-2.207,3.025-2.012,4.211-0.23c1.191,1.78,7.197,4.276,7.197,4.276s-3.757,2.658,3.809,5.49
								c6.904,2.598,13.483,4.525,15.609,3.499c0.164,0.366,0.89,0.813,2.535,1.397c7.064,2.501,9.387,4.64,11.377,6.182
								c2.004,1.551,3.981,5.252,4.006,6.532c0.035,1.282,0.963,2.829,3.415,3.425c2.456,0.602,5.417-0.613,8.193,0.578
								c2.774,1.183-0.18,2.388,4.722,3.604c4.913,1.201,7.408,0.928,7.408,0.928l2.274-1.504l6.753-0.229
								c0,0,3.182,1.102,3.633,2.315c0.446,1.202-1.008,2.557,1.658,3.113c2.653,0.565,4.108-0.791,4.108-0.791
								s6.162-2.25,4.5-4.295c-1.662-2.046-6.104-0.765-3.205-3.464c2.89-2.699,4.158-3.813,5.442-4.917
								c1.282-1.106,1.774-1.837,4.705,0.172c2.94,2.01,3.83-1.165,2.94,2.01c-0.892,3.176-0.811,4.028,1.317,3.827
								c2.139-0.19,3.813,0.772,3.813,0.772s2.884,0.62,3.149,2.022c0.266,1.404-1.871,1.385-1.305,3.212
								c0.548,1.821-2.645,1.794-0.853,3.385c1.792,1.593-0.72,2.933,0.703,4.806c1.411,1.874-1.627,2.665,1.183,5.138
								c2.809,2.464,1.838,5.233-2.033,7.265c-3.863,2.029-2.853-1.607-4.286,3.189c-1.423,4.781-0.774,4.865-2.591,5.788
								c-1.803,0.922-3.757,2.586-6.722,4.871c-2.977,2.287-3.18-1.104-3.917,4.049c-0.72,5.151,0.919,4.833-1.838,8.22
								c-2.765,3.398-1.614,6.473-1.614,6.473s12.159-3.918,7.844,0.208c-4.328,4.128-4.353,4.709-5.328,6.328
								c-0.971,1.609-1.641,3.317-1.641,3.317l-1.419,4.427l0.328,4.801c0,0,0.917-1.182,5.074,0.593
								c4.174,1.784,5.02,1.767,5.726,2.489c0.697,0.725,3.027,4.003,8.408,7.684c5.375,3.698,6.801,4.49,8.923,5.587
								c2.118,1.1,3.849,0.12,4.12,2.643c0.263,2.533-0.147,1.535,4.859,2.076c4.991,0.548,8.348,1.399,11.626,0.769
								c3.29-0.631,11.109-0.847,13.373-1.281c2.257-0.434,3.658-0.913,2.535,1.017c-1.118,1.94-2.61,8.663-5.44,12.858
								c-2.819,4.192-3.45,6.459-8.06,9.069c-4.606,2.601-7.211,4.606-10.093,6.229c-2.863,1.619-4.056,6.532-4.066,6.575
								c32.042-12.569,61.031-30.454,86.137-52.411c42.919-37.528,74.472-86.965,90.523-142.137L1022.288,473.89z M805.457,200.191
								c0.925-0.753,2.533,0.227,3.718,0.856c1.187,0.641,2.637,1.22,4.518-0.44c1.884-1.647,3.267-1.129,5.485-0.613
								c2.22,0.494,0.085,1.908-2.386,3.461c-2.477,1.54-0.297,1.062-2.695,1.522c-2.392,0.458-0.506,1.444-1.06,2.631
								c-0.558,1.183-3.07-1.627-6.315-3.368C803.492,202.494,803.494,201.796,805.457,200.191z M711.463,266.787
								c7.493-4.236,5.269-5.847,10.699-3.072c5.415,2.767,7.234,0.083,8.56,3.68c1.315,3.598,7.249,5.721,7.249,5.721l7.668-0.01
								l11.518,0.206c0,0,3.573,0.536,4.819,3.006c1.253,2.461,3.774,3.094-0.736,3.929c-4.527,0.829-10.423,0.023-10.423,0.023
								s-0.95,1.253,0.073,5.781c1.035,4.521,2.927,3.301,0.359,6.588c-2.568,3.289-9.325,6.949-3.815,5.67
								c5.5-1.266,9.255-5.001,12.031-3.807c2.782,1.179,3.693-2.866,6.124-3.542c2.444-0.687-0.757-1.812,1.892-4.674
								c2.651-2.853,2.641-4.578,7.292-5.041c4.637-0.462,3.543-1.747,7.852-2.577c4.319-0.829,8.498,2.207,2.919,4.147
								c-5.589,1.943-6.603,1.072-10.771,3.796c-4.151,2.735-4.703-0.163-4.948,4.175c-0.232,4.345,3.535,2.969-1.606,6.114
								c-5.147,3.135-2.359,0.999-8.543,3.201c-6.17,2.201-4.655,2.338-9.861,2.911c-5.218,0.573-9.522,1.4-7.815-3.008
								c1.726-4.414,8.371-4.183,6.064-8.467c-2.303-4.285-4.234-3.267-6.917-1.673c-2.674,1.578,0.608-4.115,0.338-5.819
								c-0.276-1.716-2.319-3.542-5.51-3.537c-3.189,0.006-3.736-2.868-5.601,1.885c-1.867,4.739-2.438,1.712-2.994,4.361
								c-0.566,2.64-1.703,0.033-0.328,7.304c1.378,7.266,3.664,11.452-2.247,13.926c-5.915,2.475-8.456-7.592-6.581-12.232
								c1.886-4.641,3.782-8.142,0.529-7.339c-3.251,0.791-0.913-5.955,2.643-7.359c3.568-1.399,5.269-1.392,8.259-2.457
								c2.989-1.066,5.525-1.125,5.778-2.032c0.255-0.906-4.259-4.548-7.811-3.111c-3.564,1.437-0.637,1.179-5.245,2.662
								c-4.612,1.479-9.282,1.531-8.311-0.058c0.975-1.578,2.087-1.791-1.57-2.387C708.83,273.086,711.463,266.787,711.463,266.787z
								 M676.63,240.46c2.259-0.812-0.083-1.898-0.118-4.329c-0.033-2.419,2.363-1.74,7.18-2.518c0,0,1.135,1.496-0.952,2.473
								c-2.083,0.978-0.902,1.18-1.195,2.657c-0.288,1.487-0.288,1.487,0.135,4.421c0.409,2.924,0.373,3.505,2.597,5.505
								c2.224,2.009,1.404,2.168,2.975,6.68c1.56,4.503-1.602,2.795-4.34,4.045c-2.749,1.239,0,0-0.606-2.322
								c-0.597-2.321,0.106-4.027-2.149-6.961c-2.251-2.927-2.821-0.673-3.537-2.97c-0.724-2.3,0.375-2.514-1.969-4.06
								C672.321,241.518,674.369,241.273,676.63,240.46z M669.398,241.938c0,0,2.975,3.013,1.604,4.741
								c-1.371,1.727-0.689,3.106,1.712,3.785c2.4,0.69,2.732,0.198,2.303,2.422c-0.436,2.228,1.205,2.636,2.575,6.087
								c1.359,3.463-2.861,2.127-3.473-1.102c-0.614-3.241-1.691-2.195-4.066-3.457c-2.365-1.27-2.39-2.122-2.247-3.867
								c0.139-1.741,0.311-2.634-2.95-4.872C661.59,243.435,663.867,242.713,669.398,241.938z M655.426,220.211
								c-0.427-3.892-1.124-2.962,2.819-3.115c1.386-0.055,2.782,0.754,2.28,4.825c-0.506,4.061-1.575,1.799-4.583,4.419
								C652.926,228.956,655.835,224.111,655.426,220.211z M601.584,327.19c-0.981,4.385-1.593,2.242-5.543,3.325
								c-3.94,1.082-0.392-2.067-1.434-7.559c-1.042-5.491-1.212-3.596,4.382-4.924C601.337,317.467,602.559,322.82,601.584,327.19z
								 M603.088,183.14c0,0,1.539-0.839,5.572-2.577c4.031-1.749,0.602-0.763-2.104-1.429c-2.714-0.658-1.981,0.06-7.452,0.369
								c-5.477,0.3,3.722-1.69,9.01-2.914c5.299-1.238,1.417-0.502,6.993-0.708c2.193-0.077,0.214,2.219,3.388,2.678
								c3.166,0.467,0.141,0.725,0.454,2.391c0.315,1.656-0.77,2.187-3.643,1.014c-2.881-1.163-2.048,0.391-2.74,1.277
								c-0.683,0.885-3.568,4.129-3.568,4.129s-4.153-0.603-7.141-1.745C598.875,184.484,603.088,183.14,603.088,183.14z
								 M625.716,201.548c-2.263,0.433-2.593,0.926-7.547,3.383c-4.95,2.457-3.469,1.305-6.591-0.018
								c-3.124-1.338-3.653-1.339-4.135-2.209c-0.49-0.878,4.234-0.606,5.498-1.808c1.263-1.219,2.682-3.845,2.682-3.845
								s-1.61-2.9,1.091-4.29c1.224-0.633,1.187,1.168,2.514,3.157c1.332,2.005,2.463,2.867,5.77,1.852
								c3.321-1.001,3.504-2.88,8.128-4.303c4.618-1.419,2.732,0.438,1.226,0.843c-1.529,0.401-2.135,1.698-3.691,4.142
								C629.104,200.896,627.975,201.115,625.716,201.548z M750.984,513.843c1.359-1.683,3.253-3.616,3.763-1.978
								C755.042,512.833,752.453,513.279,750.984,513.843z"/>
							<path style="fill:#A2E363;" d="M716.376,172.107c-2.222-1.078-3.5-2.767-3.027-0.281c0.471,2.486-1.496,2.217,0.784,4.141
								c2.282,1.926,2.423,2.117,0.674,2.453c-1.745,0.334-2.054,1.467-0.473,3.094c1.585,1.629,0.319,3.915,2.767,2.259
								c2.452-1.65,4.164-3.269,5.176-4.646c1.021-1.373,0.309-2.314,2.718-1.38c2.411,0.934,4.214,0.907,5.799-0.258
								c1.591-1.161,3.018-3.151-0.469-2.481c-3.487,0.672-4.411,0.85-4.668-0.5c-0.255-1.348,1.106-2.04-2.913-1.911
								C718.732,172.722,716.376,172.107,716.376,172.107z"/>
							<path style="fill:#A2E363;" d="M726.442,180.908c-3.11,0.357-4.367-0.074-5.176,2.416c-0.801,2.49-0.33,4.977,2.27,2.971
								c2.597-2,2.498-1.972,3.888-3.048C728.817,182.169,728.618,180.655,726.442,180.908z"/>
							<path style="fill:#A2E363;" d="M737.883,178.432c-4.386,0.711-5.68,1.97-3.386,3.427c2.299,1.458,3.869,2.445,4.087,0.256
								C738.808,179.925,739.435,178.18,737.883,178.432z"/>
							<path style="fill:#A2E363;" d="M744.742,205.988c-1.288,0.322-1.294,1.393-1.514,2.867c-0.209,1.471,0.172,0.898-0.873,2.103
								c-1.046,1.202-0.193,1.61,1.361,1.954c1.556,0.346,3.139,0.469,2.759-1.531c-0.382-2.004-1.292-2.33,0.012-3.655
								C747.8,206.4,745.959,205.682,744.742,205.988z"/>
							<path style="fill:#A2E363;" d="M841.607,226.784c-6.853,1.493-15.12-0.706-10.157,1.952c4.956,2.658,6.641,3.685,9.693,2.965
								C844.192,230.968,841.607,226.784,841.607,226.784z"/>
							<path style="fill:#A2E363;" d="M855.905,235.762c-2.243,0.263-0.297,0.531-1.653,4.014c-0.981,2.544-2.635,5.554-2.164,5.913
								c0.257,0.193,1.093-0.433,1.533-0.852c0.774-0.747,1.166-1.639,1.504-2.938C855.125,241.9,855.658,239.899,855.905,235.762
								L855.905,235.762z"/>
							<path style="fill:#A2E363;" d="M859.93,241.618c1.359,0.992,2.232,1.101,1.309,2.378c-0.934,1.278-0.299,0.139-1.096,2.091
								c-0.805,1.946-0.614,3.953-1.853,2.257c-1.234-1.697-0.979-4.186-0.251-5.413C858.776,241.697,859.93,241.618,859.93,241.618
								z"/>
							<path style="fill:#A2E363;" d="M857.629,209.278c-1.446,0.957-1.724,2.05-1.602,3.853c0.124,1.799-0.201,3.469-0.201,3.469
								l-0.349,2.648c0,0,1.284,1.147,1.027,2.594c-0.262,1.448,0.054,3.103,0.054,3.103s-1.51,0.563-1.67,1.37
								c-0.151,0.804-3.369-0.616-0.467,1.618c2.911,2.233,2.34,1.465,2.066,2.824c-0.268,1.359,0.979,2.928,2.421,2.111
								c1.444-0.814-1.55-1.429,4.251-1.947c5.809-0.525,5.944-3.767,6.705-2.518c0.77,1.245,1.01,1.308,1.575,0.122
								c0.564-1.178,3.55-3.363,2.357-0.985c-1.195,2.377-3.761,5.037-1.579,5.089c2.182,0.054,5.232-1.831,4.135-4.242
								c-1.095-2.417-0.994-5.23,0.44-2.712c1.436,2.515,0.84,4.992,2.958,4.371c2.118-0.621,2.581,0.051,3.919,0.482
								c1.34,0.426,3.635,0.106,1.527-2.602c-2.11-2.709-1.809-6.739-3.135-4.765c-1.334,1.974-3.075,2.844-4.392,0.41
								c-1.311-2.43-1.124-2.575-3.045-3.709c-1.913-1.133,0.361-4.256-2.99-3.717c-3.351,0.537-3.127,3.391-5.417,2.542
								c-2.286-0.849-2.724-3.231-3.888-1.185c-1.155,2.048-1.915,4.23-2.927,2.817c-1.015-1.413-2.359-0.689-1.745-3.027
								C858.278,214.953,859.235,208.219,857.629,209.278z"/>
							<path style="fill:#A2E363;" d="M622.355,157.638c-4.512-2.141-10.796,0.639-4.902-4.212c5.882-4.855,6.417-3.526,8.649-5.958
								c2.234-2.435,4.913-3.236,4.913-3.236s7.12-1.367,8.749-0.25c1.626,1.119,5.045,1.179,1.701,2.251
								c-3.346,1.071-6.089,3.029-6.089,3.029l-3.74,2.726l-3.639,3.992L622.355,157.638z"/>
							<path style="fill:#A2E363;" d="M644.466,150.093c-0.135-1.328,0.079-2.592-2.506-1.234c-2.575,1.353-4.487,1.012-6.159,1.903
								c-1.672,0.889-0.307,0.628-1.873,2.073c-1.57,1.448-3.933,3.333-3.933,3.333l3.761,0.281c0,0,4.12,0.781,1.251,1.333
								c-2.873,0.55-10.338,1.557-6.823,2.17c3.523,0.613,7.334-0.98,10.166-0.235c2.838,0.743,2.728,1.194-1.077,1.926
								c-3.807,0.731-9.969-0.807-6.018,1.157c3.938,1.961,6.112-0.032,5.089,2.024c-1.031,2.066-0.737,2.867,3.29,1.664
								c4.027-1.202,2.994,0.07,6.448-1.131c3.461-1.202,6.433-3.492,6.433-3.492s1.388-3.13,4.933-1.667
								c3.531,1.473,8.149,4.878,10.558,4.13c2.415-0.755,1.793-1.778,0.133-3.033c-1.654-1.259-1.367-2.028,0.602-2.837
								c1.971-0.81,4.276-2.112,1.168-2.802c-3.11-0.688-3.45-2.49-3.819-4.419c-0.365-1.936-1.502-3.436-2.315-3.995
								c-0.815-0.559,1.568-4.453-1.39,0.122c-2.962,4.578-2.983,7.449-3.929,6.196c-0.948-1.248-0.676-4.309-0.676-4.309
								s0.077-2.586-2.033-1.753c-2.114,0.832-1.425-0.013-3.075,1.735c-1.654,1.749-1.963,3.099-2.55,1.491
								c-0.596-1.605,0.952-3.187-1.052-2.518c-1.998,0.67-2.406,0.75-2.848,1.406C645.775,150.271,644.619,151.638,644.466,150.093
								z"/>
							<path style="fill:#A2E363;" d="M679.45,145.054c2.247,1.179,3.933,2.786,3.933,2.786s3.303-0.529,1.27,2.227
								c-2.027,2.751-1.967,3.064-3.494,4c-1.523,0.939-0.517,3.429-2.734,1.275c-2.214-2.145-1.724-2.372-3.085-2.798
								c-1.355-0.429-3.558-1.938-1.027-2.635c2.523-0.705,3.019-0.906,2.971-2.828C677.236,145.16,679.45,145.054,679.45,145.054z"
								/>
							<path style="fill:#A2E363;" d="M689.603,149.803c-2.292,1.365-5.516,2.842-5.431,4.435c0.091,1.597,1.99,4.344,1.99,4.344
								s2.674-1.048,3.214-1.585c0.533-0.532,1.934-1.011,3.884-1.385c1.946-0.377,3.703-1.212,1.915-2.822
								C693.377,151.181,689.603,149.803,689.603,149.803z"/>
							<path style="fill:#A2E363;" d="M687.039,143.577c-0.901,0.837-0.84,1.147-0.506,2.911c0.334,1.757-0.048,3.124,1.025,2.59
								c1.066-0.523,1.112-0.855,2.195-1.278c1.093-0.426-2,1.782,1.647-0.316c3.643-2.097,3.691-2.962,4.149-3.913
								c0.461-0.949,3.66-2.566-0.299-1.572C691.292,142.994,687.039,143.577,687.039,143.577z"/>
							<path style="fill:#A2E363;" d="M707.816,138.744c-1.778-0.412-1.367,0.37-2.672,1.317c-1.309,0.953-1.512-1.371-3.299,1.547
								c-1.778,2.923-2.778,0.963-1.772,2.92c1.01,1.95,2.041,2.871,2.041,2.871s2.66-0.014,2.44,1.636
								c-0.22,1.654,1.402,2.349,2.207,1.528c0.801-0.822,2.408-1.341,4.249-1.695c1.848-0.353,4.647-0.787,6.273-0.884
								c1.629-0.095,4.498-0.645,4.498-0.645s1.68,2.678,3.473,0.939c1.805-1.743,0.776-4.338,3.552-3.152
								c2.782,1.184,4.805,1.226,4.805,1.226l3.672,1.411l3.604,4.985l5.135-0.986c0,0,1.745,0.813,2.193,1.48
								c0.442,0.665,1.676-5.763,3.753-2.619c2.087,3.144,1.921,5.077,1.921,5.077s-2.153,0.985-2.375,2.635
								c-0.212,1.65,1.243,1.495-0.479,2.474c-1.73,0.975-1.579,1.223-3.813,1.76c-2.241,0.538,0.89,0.777-3.805,0.712
								c-4.693-0.064-4.375-1.213-5.579,0.309c-1.197,1.517-2.095,1.038-1.255,3.344c0.844,2.309,3.844,3.021,3.844,3.021
								s6.865-0.25,7.927-2.494c1.068-2.243,3.392-0.651,6.359-0.684c2.979-0.034,7.103,0.996,8.502,2.231
								c1.409,1.234-1.176,1.085,5.469,0.775c6.637-0.308,7.153-0.407,9.937-0.298c2.788,0.107,5.805,0.697,5.128,0.132
								c-2.019-1.697-3.751-2.975-6.798-3.354c-3.052-0.381-6.56-2.071-4.413-1.945c2.156,0.123,6.012,0.859,6.012,0.859
								s5.983,0.701,6.815,1.187c0.84,0.481,6.147,2.684,2.651-0.082c-3.504-2.761-3.701-3.799-3.701-3.799l-5.326-4.529
								c0,0-1.946-0.73-4.182-0.728c-2.232-0.002-4.863-1.534-4.863-1.534s-0.388-2.613-2.392-2.55
								c-2.01,0.066,0.88-2.64,2.55-1.669c1.672,0.963,2.174,1.945,4.57,2.234c2.394,0.291,0.853-1.132,4.238,0.476
								c3.392,1.599,4.63-0.248,4.63-0.248l-0.301-3.272l-1.292-3.469c0,0-3.585,0.722-5.541,1.066
								c-1.954,0.335-3.68-1.479-3.68-1.479l-3.116-0.153l-6.023,0.191c0,0-4.842,0.286-4.375-1.196
								c0.463-1.49,0.21-3.373,0.21-3.373l-2.838-1.495c0,0-3.116,0.385-4.431,0.747c-1.313,0.358-3.591-1.028-3.591-1.028
								s-0.257-1.348-4.28-0.682c-4.021,0.665-3.921,0.646-4.886,0.614c-0.965-0.027-0.888-3.588-5.977-2.931
								c-5.089,0.659-6.147-1.721-8.029,0.47c-1.888,2.187-2.645,4.373-5.103,2.052c-2.461-2.318-1.846-4.691-5.261-3.923
								c-3.423,0.76-6.371,0.894-4.908,3.031c1.473,2.135,3.792,4.266,3.792,4.266c-1.925,2.193-1.151,2.368-2.666,2.77
								c-1.521,0.4-1.882-0.394-2.052-1.861c-0.179-1.469,0.349-0.928-0.51-3.233C707.816,138.744,707.816,138.744,707.816,138.744z
								"/>
							<path style="fill:#A2E363;" d="M720.091,133.914c-1.39,2.203-2.216,2.894-0.427,3.36c1.786,0.461,3.875,0.809,5.029-0.968
								c1.147-1.776,4.581-3.293,1.558-3.575C723.216,132.455,720.091,133.914,720.091,133.914z"/>
							<path style="fill:#A2E363;" d="M687.767,135.081c0.687,1.907,1.106,3.007,1.106,3.007s1.118,0.861,2.564,1.761
								c1.454,0.907,3.402,1.109,4.581,0.591c1.182-0.513-0.207-1.103,2.031-2.182c2.247-1.073,3.263-0.745,6.377-1.715
								c3.116-0.966,6.705-1.658,8.184-2.266c1.481-0.606,2.087-2.439,2.087-2.439s0.398-1.258-5.55-0.113
								c-5.952,1.143-4.792,1.564-7.902,1.731c-3.12,0.171-3.666-2.731-4.994-0.755c-1.326,1.97,0.826,2.681-1.187,3.85
								c-2.01,1.161-1.602,2.75-3.18,0.611c-1.57-2.142-1.411-2.386-1.585-3.317C690.12,132.911,687.767,135.081,687.767,135.081z"
								/>
							<path style="fill:#A2E363;" d="M725.688,115.77c-5.987,0.962-9.199,1.656-9.199,1.656l-7.753,1.343
								c0,0-2.429-0.399-2.786,1.049c-0.367,1.452-2.386,2.043-2.386,2.043s-4.944-4.16-4.143-1.602
								c0.811,2.554,0.803,2.555,0.803,2.555s2.94,2.029,3.079,2.755c0.137,0.728-0.062,3.038-0.062,3.038l-2.22,0.429l-0.363-1.908
								l4.96,4.508l2.469-0.472l-3.253,0.256l-6.624-0.737c0,0-0.9,2.443,2.836,1.725c3.734-0.717,2.751,0.255,7.375-2.255
								c4.628-2.514,5.695-3.197,8.3-3.701c2.602-0.499-2.487,1.26,4.131-0.869c6.61-2.131,8.06-2.34,7.506-4.166
								c-0.562-1.826-0.853-1.682-1.166-3.342C726.877,116.419,727.854,115.421,725.688,115.77z"/>
							<path style="fill:#A2E363;" d="M683.358,130.882c0.129-0.093,0.828-0.578,1.637-0.316c0.081,0.028,0.844,0.282,1.037,0.943
								c0.243,0.853-0.608,1.802-1.442,2.142c-0.627,0.255-1.668,0.343-2.102-0.239
								C681.981,132.725,682.549,131.444,683.358,130.882z"/>
							<path style="fill:#A2E363;" d="M677.921,136.222c0.749,0.099,1.102,1.422,1.162,1.637c0.363,1.369-0.313,2.483-0.417,2.656
								c-0.272,0.43-0.72,1.158-1.473,1.213c-0.871,0.067-1.707-0.785-1.875-1.641c-0.133-0.704,0.216-1.243,0.799-2.159
								C676.68,137.04,677.259,136.132,677.921,136.222z"/>
							<path style="fill:#A2E363;" d="M683.313,139.263c0.794-1.122,3.317-0.665,3.678,0.298c0.266,0.71-0.66,1.682-0.849,1.883
								c-0.282,0.29-1.052,1.098-1.815,0.917C683.325,142.123,682.653,140.21,683.313,139.263z"/>
							<path style="fill:#A2E363;" d="M681.879,136.178c-0.01,0.404,0.49,0.701,0.568,0.75c0.979,0.579,2.641-0.114,2.737-0.885
								c0.056-0.394-0.301-0.779-0.604-0.954C683.578,134.49,681.902,135.439,681.879,136.178z"/>
							<path style="fill:#A2E363;" d="M673.639,128.594c-0.774-0.207-1.597-0.03-3.201,0.331c-1.961,0.445-2.948,0.674-3.037,1.156
								c-0.141,0.721,1.34,1.6,2.141,1.95c1.967,0.872,3.792,0.3,4.342,0.099c0.693-0.254,1.981-0.726,2.05-1.536
								C676.004,129.727,674.682,128.878,673.639,128.594z"/>
							<path style="fill:#A2E363;" d="M679.315,129.009c-0.969,0.223-1.485,1.376-1.137,2.22c0.241,0.583,0.861,0.949,1.452,0.94
								c0.913-0.015,1.805-0.907,1.631-1.887C681.107,129.408,680.178,128.81,679.315,129.009z"/>
							<path style="fill:#A2E363;" d="M661.986,137.067c0.618,0.232,0.33,1.197,1.239,2.049c0.666,0.618,1.207,0.469,1.388,0.952
								c0.23,0.623-0.415,1.584-1.174,2.015c-1.239,0.699-3.28,0.277-3.9-1.113c-0.494-1.098,0.154-2.247,0.359-2.574
								C660.362,137.669,661.326,136.82,661.986,137.067z"/>
							<path style="fill:#A2E363;" d="M644.717,140.956c0.394-0.99,1.378-1.374,2.622-1.866c1.187-0.466,2.172-0.575,3.135-0.673
								c1.394-0.145,2.211-0.226,3.27,0.012c0.583,0.142,2.429,0.569,3.377,2.146c0.089,0.149,0.838,1.391,0.38,2.002
								c-0.353,0.478-1.251,0.33-2.461,0.116c-2.469-0.435-3.06-1.2-4.581-0.982c-0.178,0.027-0.714,0.23-1.79,0.63
								c-2.575,0.964-3.083,1.34-3.566,1.046C644.487,143.006,644.383,141.788,644.717,140.956z"/>
							<path style="fill:#A2E363;" d="M634.78,138.997c-0.087-0.779,1.867-1.557,2.294-1.726c1.166-0.465,2.108-0.836,2.84-0.333
								c0.722,0.497,1.027,1.706,0.624,2.175c-0.417,0.479-1.243-0.228-2.678,0.083c-1.417,0.303-2.529,1.405-2.481,1.477
								c0.023,0.048-1.494-0.21-1.446-0.497C634.002,139.74,634.838,139.604,634.78,138.997z"/>
							<path style="fill:#A2E363;" d="M646.105,134.82c-0.305,0.215-1.193,0.833-1.073,1.421c0.129,0.687,1.548,1.085,2.641,0.851
								c0.191-0.035,1.237-0.278,1.811-1.272c0.16-0.287,0.56-0.982,0.303-1.424C649.356,133.691,647.391,133.918,646.105,134.82z"
								/>
							<path style="fill:#A2E363;" d="M656.665,133.291c-1.334-0.197-2.869,0.551-2.882,1.268c-0.008,0.597,1.054,1.145,1.875,1.288
								c1.351,0.227,2.936-0.487,2.958-1.213C658.635,134.024,657.559,133.424,656.665,133.291z"/>
							<path style="fill:#A2E363;" d="M665.996,144.383c0.898-1.099,3.245-0.917,3.958,0.315c0.539,0.926-0.062,2.095-0.139,2.24
								c-0.475,0.891-1.529,1.694-2.485,1.484C665.894,148.105,665.023,145.572,665.996,144.383z"/>
							<path style="fill:#A2E363;" d="M737.163,150.499c1.166,0.185,2.434,1.347,2.436,2.754c0.008,1.606-1.622,2.496-1.844,2.612
								c-1.678,0.882-4.11,0.373-4.622-0.831C732.454,153.446,734.887,150.137,737.163,150.499z"/>
							<path style="fill:#A2E363;" d="M843.308,242.736c1.614,0.078,2.037,2.628,4.157,2.856c1.348,0.145,2.239-0.783,2.543-0.42
								c0.357,0.426-0.419,2.213-1.703,2.621c-1.151,0.36-1.728-0.689-3.763-1.139c-2.547-0.565-3.993,0.564-4.41-0.082
								C839.578,245.709,841.505,242.653,843.308,242.736z"/>
							<path style="fill:#A2E363;" d="M806.731,397.945c-0.774,0.871-0.33,3.034,0.784,4.142c0.979,0.97,1.882,0.544,2.558,1.511
								c0.788,1.132-0.137,2.153,0.68,3.593c0.446,0.784,1.365,1.62,2.118,1.455c1.139-0.252,1.432-2.712,1.558-3.74
								c0.187-1.531,0.367-3.064-0.431-4.493C812.44,397.591,807.901,396.619,806.731,397.945z"/>
							<path style="fill:#A2E363;" d="M799.748,403.724c0.973-0.823,2.732-0.596,3.51,0.615c0.668,1.023,0.461,2.5-0.517,3.245
								c-0.799,0.615-1.923,0.595-2.674,0.083C798.831,406.833,798.592,404.688,799.748,403.724z"/>
							<path style="fill:#A2E363;" d="M807.894,412.318c0.629-0.066,1.158,0.658,2.062,1.902c1.355,1.845,2.292,3.135,1.846,4.508
								c-0.442,1.354-2.145,2.534-3.566,2.118c-1.562-0.457-1.925-2.588-2.054-3.328
								C805.797,415.194,806.741,412.446,807.894,412.318z"/>
							<path style="fill:#A2E363;" d="M816.89,408.159c-1.328,0.35-2.462,1.838-2.182,2.707c0.322,0.979,2.201,0.552,3.24,2.102
								c0.498,0.763,0.291,1.238,0.884,1.69c0.71,0.543,1.994,0.601,2.674-0.086c0.805-0.801,0.361-2.21,0.187-2.751
								C821.072,409.832,818.915,407.624,816.89,408.159z"/>
							<path style="fill:#A2E363;" d="M821.603,419.566c-0.734,0.581-0.664,1.837-0.212,2.613c0.512,0.888,1.739,1.556,2.612,1.079
								c0.907-0.499,1.056-2.008,0.44-2.952C823.827,419.379,822.413,418.923,821.603,419.566z"/>
							<path style="fill:#A2E363;" d="M828.734,419.052c-0.896,0.61-0.568,2.574-0.351,3.363c0.097,0.362,0.641,2.322,2.411,2.972
								c0.23,0.089,1.761,0.618,2.649-0.221c0.963-0.918,0.367-2.716,0.295-2.922C832.951,419.884,829.91,418.261,828.734,419.052z"
								/>
							<path style="fill:#A2E363;" d="M843.53,431.244c-1.643,0.645-3.07,2.613-2.494,4.058c0.446,1.115,1.878,1.404,2.124,1.455
								c1.506,0.306,3.311-0.406,4.023-1.921c0.371-0.785,0.635-2.175-0.166-3.117C846.096,430.628,844.395,430.903,843.53,431.244z
								"/>
							<path style="fill:#A2E363;" d="M760.901,453.132c-0.832-1.897,5.626-7.083,11.394-10.206
								c7.143-3.864,13.719-4.845,17.692-5.406c5.751-0.803,10.363-0.623,14.371-0.467c6.894,0.266,10.342,0.398,13.273,1.17
								c0.865,0.231,1.954,0.58,3.485,0.477c2.498-0.17,3.282-1.347,4.929-0.948c1.411,0.342,1.195,1.293,2.987,2.287
								c2.043,1.136,4.28,0.987,5.84,0.884c2.855-0.189,3.792-1.05,4.757-0.34c0.994,0.732,1.228,2.558,0.734,3.866
								c-0.871,2.276-3.931,2.893-6.701,3.578c-12.255,3.045-16.825,7.075-18.937,4.788c-1.564-1.696-0.137-5.041-1.649-5.7
								c-1.324-0.573-2.639,1.868-4.821,1.501c-1.894-0.324-1.896-2.328-4.016-3.237c-1.222-0.524-1.904-0.153-6.894,1.036
								c-5.595,1.336-6.894,1.374-8.317,1.028c-1.413-0.35-1.166-0.655-3.371-1.359c-2.342-0.746-6.078-1.504-6.605-0.448
								c-0.378,0.746,1.11,1.879,0.743,2.436c-0.485,0.728-3.025-1.282-5.784-0.607c-1.238,0.302-1.12,0.801-4.454,3.433
								c-3.406,2.691-4.62,3.041-5.653,3.087C763.62,453.999,761.336,454.112,760.901,453.132z"/>
							<path style="fill:#A2E363;" d="M844.723,442.396c0.859-1.938,4.265-0.68,9.769-2.308c3.9-1.153,3.975-2.31,8.877-3.64
								c3.666-0.988,5.371-0.815,6.035-0.729c2.425,0.329,2.537,1.157,5.678,1.916c3.575,0.866,5.417,0.272,6.014,1.421
								c0.452,0.891-0.11,2.296-0.89,3.177c-2.274,2.582-5.823,0.078-10.551,2.676c-1.357,0.743-1.496,1.185-3.421,2.156
								c-2.344,1.191-3.363,1.148-4.033,2.281c-0.55,0.92-0.093,1.324-0.639,3.341c-0.421,1.527-0.627,2.29-1.174,2.806
								c-1.695,1.592-4.419-1.075-8.971-0.209c-2.22,0.419-2.556,1.239-4.267,1.034c-2.608-0.318-4.809-2.573-4.481-3.434
								c0.375-0.98,3.753,0.586,6.155-1.182c1.905-1.407,2.998-4.125,2.216-5.15c-0.909-1.199-3.778,0.678-5.481-0.883
								C844.721,444.913,844.262,443.428,844.723,442.396z"/>
							<path style="fill:#A2E363;" d="M753.99,107.431c-3.267,1.233-5.554,1.159-10.064,3.01c-1.272,0.517-2.865,1.254-3.709,2.854
								c-0.556,1.053-0.266,1.483-0.842,2.316c-1.351,1.955-4.12,1.254-4.442,2.353c-0.359,1.205,2.633,3.139,4.429,4.302
								c2.129,1.379,3.199,2.072,4.245,2.192c3.187,0.368,4.284-2.491,8.381-2.896c1.303-0.135,2.402,0.115,4.589,0.617
								c2.975,0.685,4.921,1.491,9.354,3.355c9.271,3.909,10.273,4.393,12.012,3.922c0.784-0.211,2.294-0.77,4.185-0.376
								c0.274,0.059,2.716,0.6,2.89,1.809c0.197,1.325-2.506,2.111-2.319,3.452c0.151,1.057,1.973,1.62,3.141,1.974
								c1.226,0.376,2.531,0.773,3.643,0.156c1.241-0.684,1.131-2.006,1.946-2.089c0.556-0.058,0.987,0.521,2.639,2.716
								c1.18,1.564,1.772,2.341,1.987,2.623c1.614,2.076,2.425,3.114,3.494,3.841c1.583,1.064,2.137,0.63,4.164,1.771
								c1.566,0.885,2.156,1.652,3.257,2.596c3.859,3.299,8.832,4.253,9.027,3.849c0.139-0.294-2.153-1.535-2.031-1.753
								c0.137-0.265,3.581,1.35,8.776,3.68c7.406,3.325,8.73,3.783,10.742,3.952c3.035,0.248,2.987-0.533,6.153-0.112
								c2.718,0.364,4.585,1.194,7.852,1.068c0.359-0.012,1.5-0.065,2.875-0.553c1.114-0.394,2.51-0.886,2.844-1.834
								c0.452-1.307-1.278-3.004-2.751-4.41c-4.039-3.869-6.203-3.504-8.956-6.867c-1.579-1.924-1.164-2.399-2.597-3.585
								c-2.525-2.091-5.008-1.596-5.749-3.403c-0.324-0.787-0.073-1.627,0.44-3.304c1.054-3.507,2.461-3.913,2.214-5.151
								c-0.326-1.596-3.417-2.618-9.591-4.598c-2.378-0.763-3.164-0.91-3.967-1.821c-1.583-1.775-0.593-3.464-2.037-6.262
								c-0.884-1.705-2.892-4.25-4.801-4.019c-0.523,0.065-0.819,0.307-4.577,3.889c-1.24,1.178-1.72,1.638-2.269,1.508
								c-0.948-0.219-1.614-2.067-1.322-3.611c0.351-1.884,1.992-2.459,1.743-3.128c-0.292-0.792-2.757-0.393-7.738-0.445
								c-3.604-0.042-4.767-0.276-5.319-1.127c-0.68-1.052,0.255-2.024-0.419-3.354c-0.595-1.167-1.869-1.523-4.249-2.19
								c-2.647-0.747-4.649-1.309-6.676-0.436c-1.541,0.664-1.514,1.479-2.674,1.591c-1.672,0.155-2.475-1.46-4.772-2.734
								c-1.718-0.957-3.212-1.14-5.151-1.375c-4.927-0.597-8.871,1.02-10.917,1.883C756.752,105.107,757.828,105.988,753.99,107.431
								z"/>
						</g>
					</g>
					<path style="opacity:0.4;fill:#278EE2;" d="M1022.288,473.89l0.649-0.219c-16.051,55.171-47.604,104.609-90.523,142.137
						c-38.272,33.728-85.669,57.951-139.203,68.238c-147.382,28.319-290.141-58.772-336.739-198.473
						c74.767,21.431,153.869,28.022,226.245,11.824c20.964-4.688,41.363-11.295,60.933-20.004c0.43-0.187,0.861-0.376,1.28-0.571
						c1.326-0.589,2.643-1.196,3.954-1.816c16.856-7.884,33.063-17.366,48.456-28.592c3.99-2.9,7.863-5.965,11.628-9.171
						c5.118-4.361,10.041-9,14.746-13.869c0.338-0.348,0.666-0.691,0.992-1.049c58.786-61.762,84.125-161.798,66.512-246.979
						c-3.485-16.854-10.995-34.715-19.935-52.474c79.125,40.545,139.494,116.31,157.458,211.07
						C1037.88,382.139,1035.017,429.838,1022.288,473.89z"/>
				</g>
				<path style="fill:#4C5D6B;" d="M939.768,174.685c-3.66,5.231-21.337-1.028-39.484-13.977
					c-18.149-12.947-29.897-27.685-26.238-32.916c3.662-5.231,21.339,1.026,39.488,13.977
					C931.684,154.717,943.426,169.456,939.768,174.685z"/>
				<path style="fill:#4C5D6B;" d="M614.401,660.925c-3.558,5.307-21.358-0.586-39.762-13.156
					c-18.404-12.571-30.449-27.064-26.897-32.371c3.556-5.305,21.356,0.588,39.76,13.158
					C605.907,641.128,617.95,655.621,614.401,660.925z"/>
				<polygon style="fill:#4C5D6B;" points="555.53,656.641 572.28,633.922 589.636,646.344 572.135,672.047 				"/>
				<polygon style="fill:#4C5D6B;" points="896.505,140.561 913.255,117.843 930.609,130.264 913.112,155.969 				"/>
				<g>
					<path style="fill:#4C5D6B;" d="M907.992,129.769c12.25,8.073,20.565,14.315,31.476,23.677
						c10.336,8.877,20.053,18.478,29.204,28.587c9.618,10.623,15.698,18.429,23.516,29.674
						c7.576,10.908,14.412,22.337,20.615,34.092c6.612,12.525,10.597,21.602,15.244,33.914c4.981,13.196,9.025,26.742,12.3,40.465
						c6.467,27.129,8.979,54.176,8.108,83.179c-0.452,15.183-1.689,26.609-4.064,40.726c-2.427,14.436-5.933,28.676-10.261,42.646
						c-8.529,27.542-21.265,53.75-37.739,78.953c-30.385,46.493-73.491,83.677-123.995,108.354
						c-21.065,10.294-45.805,18.525-70.242,23.809c-12.578,2.721-21.677,4.033-34.638,5.235
						c-13.008,1.205-26.088,1.517-39.141,1.139c-56.049-1.624-111.116-19.76-158.794-50.788c-7.114-4.628-17.159-1.272-21.165,5.836
						c-4.357,7.721-1.303,16.752,5.803,21.376c55.058,35.83,119.574,54.904,185.017,55.068
						c58.334,0.148,116.381-15.668,167.223-44.288c105.13-59.19,171.455-174.469,173.187-295.577
						c0.819-57.629-13.605-115.109-40.17-166.033c-25.949-49.748-64.601-91.9-110.503-123.493c-1.857-1.278-3.736-2.525-5.618-3.763
						c-7.087-4.672-17.176-1.247-21.169,5.834C897.816,116.146,900.911,125.105,907.992,129.769L907.992,129.769z"/>
					<path style="fill:#303942;" d="M911.826,122.986c45.247,29.804,82.245,70.719,107.641,118.838
						c26.074,49.403,38.415,105.571,36.743,161.404c-1.774,59.265-20.821,117.001-53.079,166.363
						c-31.316,47.914-75.677,86.235-126.777,111.202c-45.805,22.386-97.029,32.753-147.828,31.279
						c-57.836-1.675-114.238-20.22-162.79-51.816c-8.44-5.491-16.051,8.16-7.684,13.605
						c53.927,35.091,116.902,53.877,181.023,54.038c57.014,0.141,113.707-15.209,163.408-43.192
						c102.707-57.825,167.706-170.311,169.395-288.695c0.805-56.277-13.124-112.429-39.075-162.182
						c-25.312-48.527-62.871-89.848-107.678-120.69c-1.855-1.278-3.734-2.523-5.616-3.759
						C911.1,103.841,903.492,117.496,911.826,122.986L911.826,122.986z"/>
				</g>
			</g>
			<path style="fill:#4C5D6B;" d="M937.536,1009.277v27.002H589.551v-27.002c0-16.559,13.435-29.995,30.005-29.995h287.977
				C924.101,979.282,937.536,992.718,937.536,1009.277z"/>
		</g>
		<path style="fill:#303942;" d="M937.536,1009.277v27.002H589.551v-26.259c34.351,1.425,69.314,2.727,103.572,1.303
			c39.928-1.659,80.019-3.97,117.242-19.827c7.51-3.195,15.539-6.29,20.773-12.214h76.395
			C924.101,979.282,937.536,992.718,937.536,1009.277z"/>
	</g>
	<g>
		<g>
			<g>
				<g>
					<path style="fill:#9A4D07;" d="M756.671,1031.86l-6.784-0.795l-605.665,15.261l7.23-54.597c0,0-26.571-2.197-29.119,19.947
						c-2.546,22.143-3.315,44.336,1.546,57.797c4.859,13.456,22.707,10.976,40.403,12.934
						c17.698,1.959,402.285,27.136,402.285,27.136l189.844-70.256L756.671,1031.86z"/>
					<path style="fill:#FFF5D9;" d="M746.86,1005.502c-0.081,8.986,3.035,25.567,3.035,25.567l-194.272,69.784l-11.794-1.55
						l7.145-34.798l6.759-32.944l13.149-3.689l184.175-51.707c0,0-5.657,9.473-8.027,26.441
						C746.912,1003.429,746.862,1004.406,746.86,1005.502z"/>
					<path style="fill:#BDB7AB;" d="M574.927,1022.396c0,0-0.838,1.044-2.178,2.86c-0.541,0.743-1.176,1.629-1.867,2.616
						c-1.01,1.439-2.133,3.112-3.317,4.961c-4.585,7.16-9.935,16.998-11.674,26.076c-0.365,1.868-0.658,3.727-0.919,5.54
						c-2.778,20.169,0.651,36.404,0.651,36.404s-385.245-28.232-405.987-31.427c-5.991-0.932-10.622-22.056-8.531-41.786
						c0.803-7.78,2.647-15.342,5.875-21.358c0.496-0.935,1.044-1.837,1.606-2.695c1.442-2.17,3.087-4.064,5.006-5.595
						c0.093-0.103,0.203-0.189,0.313-0.274l408.806,23.965L574.927,1022.396z"/>
					<path style="opacity:0.6;fill:#BDB7AB;" d="M747.03,1002.606c-0.118,0.823-0.168,1.8-0.17,2.896l-191.888,58.947l-1.058,0.326
						l-2.94-0.27l-409.868-36.864c0.803-7.78,2.647-15.342,5.875-21.358l6.612-8.291l391.898,28.054l17.221-4.363l12.215,0.712
						c0,0-0.838,1.044-2.178,2.86c-0.541,0.743-1.176,1.629-1.867,2.616l184.175-51.707
						C755.057,976.165,749.399,985.638,747.03,1002.606z"/>
					<path style="fill:#DA6901;" d="M758.751,972.014l-0.185,5.342l-185.795,55.838l-447.499-30.566c0,0,4.836-5.665,6.933-6.933
						c2.718-1.644,12.132-3.785,12.132-3.785l80.333-13.918l132.708-23.004l37.762-6.55l356.682,23.123L758.751,972.014z"/>
					<path style="fill:#FC8524;" d="M758.751,972.014l-0.185,5.342l-185.795,55.838l-5.207-0.361l-418.978-29.246
						c1.442-2.17,3.087-4.064,5.006-5.595l419.156,27.263l1.187,0.078l177.886-53.773L758.751,972.014z"/>
				</g>
				<polygon style="opacity:0.5;fill:#66574F;" points="690.19,997.966 423.643,1026.093 372.743,1087.707 296.398,1012.7 
					228.086,969.837 				"/>
			</g>
			<g>
				<g>
					<path style="fill:#009296;" d="M216.119,961.416l5.242-0.667l467.872,11.619l-5.5-44.931c0,0,20.53-1.851,22.466,16.375
						c1.929,18.223,2.492,36.491-1.284,47.578c-3.776,11.084-17.564,9.071-31.235,10.711
						c-13.674,1.641-310.818,22.964-310.818,22.964l-146.554-57.537L216.119,961.416z"/>
					<path style="fill:#EADFCE;" d="M223.739,939.702c0.052,7.398-2.384,21.052-2.384,21.052l149.973,57.141l9.114-1.295
						l-5.467-28.634l-5.17-27.108l-10.151-3.016l-142.203-42.277c0,0,4.359,7.791,6.161,21.753
						C223.702,937.997,223.739,938.8,223.739,939.702z"/>
					<path style="fill:#BDB7AB;" d="M356.539,953.341c0,0,0.645,0.859,1.676,2.351c0.419,0.609,0.907,1.337,1.44,2.15
						c0.776,1.184,1.643,2.558,2.554,4.079c3.531,5.888,7.649,13.977,8.977,21.446c0.28,1.538,0.504,3.067,0.703,4.56
						c2.114,16.598-0.56,29.969-0.56,29.969s297.657-23.841,313.688-26.503c4.628-0.777,8.238-18.173,6.655-34.407
						c-0.608-6.406-2.023-12.628-4.508-17.574c-0.378-0.769-0.801-1.51-1.234-2.218c-1.112-1.781-2.38-3.34-3.859-4.597
						c-0.073-0.084-0.156-0.156-0.241-0.226l-315.854,20.364L356.539,953.341z"/>
					<path style="opacity:0.6;fill:#BDB7AB;" d="M223.613,937.318c0.089,0.679,0.127,1.482,0.127,2.384l148.149,48.224l0.815,0.268
						l2.272-0.228l316.696-30.981c-0.608-6.406-2.023-12.628-4.508-17.574l-5.093-6.815l-302.798,23.704l-13.296-3.566l-9.437,0.606
						c0,0,0.645,0.859,1.676,2.351c0.419,0.609,0.907,1.337,1.44,2.15l-142.203-42.277
						C217.451,915.565,221.81,923.356,223.613,937.318z"/>
					<polygon style="fill:#009296;" points="214.607,912.155 214.742,916.55 358.184,962.227 696.362,936.398 693.763,931.687 
						689.227,927.573 627.195,916.242 524.706,897.513 495.545,892.181 219.955,911.77 					"/>
					<path style="fill:#00AAB7;" d="M214.607,912.155l0.135,4.396l143.442,45.677l4.025-0.307l323.72-24.727
						c-1.112-1.781-2.38-3.34-3.859-4.597l-323.855,23.095l-0.915,0.066L219.955,911.77L214.607,912.155z"/>
					<polygon style="fill:#009296;" points="290.94,917.574 361.611,939.779 627.195,916.242 524.706,897.513 					"/>
				</g>
				<polygon style="opacity:0.5;fill:#66574F;" points="222.669,942.522 440.56,955.917 486.101,1008.604 550.399,949.666 
					597.729,910.374 				"/>
			</g>
			<g>
				<g>
					<path style="fill:#971F29;" d="M634.995,888.233l-4.668-0.504l-415.053,25.992l3.656-45.08c0,0-18.277-1.218-19.495,17.058
						c-1.218,18.275-1.218,36.551,2.438,47.516c3.656,10.966,15.84,8.528,28.02,9.746c12.186,1.22,276.569,13.402,276.569,13.402
						l128.534-62.013V888.233z"/>
					<path style="fill:#EADFCE;" d="M627.639,866.765c0.16,7.397,2.693,20.969,2.693,20.969l-131.584,61.723l-8.128-1.014
						l4.072-28.788l3.85-27.254l8.929-3.327l125.09-46.627c0,0-3.656,7.92-4.873,21.931
						C627.628,865.06,627.616,865.864,627.639,866.765z"/>
					<path style="fill:#BDB7AB;" d="M510.115,884.48c0,0-0.548,0.878-1.423,2.4c-0.355,0.622-0.768,1.365-1.22,2.193
						c-0.66,1.206-1.388,2.607-2.158,4.155c-2.971,5.994-6.409,14.206-7.384,21.712c-0.203,1.545-0.363,3.082-0.498,4.58
						c-1.425,16.654,1.315,29.936,1.315,29.936s-264.908-14.683-279.21-16.851c-4.13-0.632-7.809-17.91-6.846-34.187
						c0.363-6.421,1.45-12.683,3.521-17.703c0.315-0.78,0.67-1.534,1.035-2.254c0.938-1.815,2.021-3.412,3.301-4.715
						c0.062-0.085,0.135-0.159,0.208-0.231l280.967,10.649L510.115,884.48z"/>
					<path style="opacity:0.6;fill:#BDB7AB;" d="M627.689,864.377c-0.06,0.683-0.073,1.486-0.05,2.387l-130.206,52.756l-0.716,0.292
						l-2.025-0.158l-282-21.236c0.363-6.421,1.45-12.683,3.521-17.703l4.336-6.969l269.466,14.388l11.709-3.97l8.392,0.315
						c0,0-0.548,0.878-1.423,2.4c-0.355,0.622-0.768,1.365-1.22,2.193l125.09-46.627
						C632.562,842.447,628.906,850.367,627.689,864.377z"/>
					<polygon style="fill:#971F29;" points="634.995,838.95 634.995,843.349 508.899,893.41 207.962,877.987 210.147,873.199 
						214.057,868.947 268.823,855.714 359.294,833.846 385.041,827.619 630.232,838.731 					"/>
					<path style="fill:#AF2738;" d="M634.995,838.95v4.399L508.899,893.41l-3.585-0.182l-288.066-14.767
						c0.938-1.815,2.021-3.412,3.301-4.715l288.143,13.133l0.815,0.036l120.725-48.186L634.995,838.95z"/>
					<polygon style="fill:#51141C;" points="567.38,846.712 505.244,871.078 268.823,855.714 359.294,833.846 					"/>
				</g>
			</g>
		</g>
		<g>
			<path style="fill:#DBE234;" d="M471.324,836.664c-2.382-5.116-11.083-7.245-16.161-8.435c-13.694-3.21-30.781-0.953-44.388,1.891
				l-30.27,13.116c6.888,17.514,12.645,17.894,28.42,22.028c15.319,4.016,38.646,1.796,52.909-4.767
				C469.453,856.994,475.278,845.163,471.324,836.664z"/>
			<polygon style="fill:#A0998D;" points="701.173,831.634 712.946,832.307 714.289,880.063 463.739,847.777 509.144,789.26 			"/>
			<path style="fill:#FFFCF8;" d="M199.074,826.588l48.423-44.39c0,0,79.368-50.447,158.062-35.65
				c54.676,10.282,49.886,39.739,46.417,46.41c-8.747,16.815-21.524,45.065-20.852,47.082
				C431.799,842.059,199.074,826.588,199.074,826.588z"/>
			<path style="fill:#E2DACC;" d="M658.967,791.278l-3.027,38.843c-1.249,6.679,11.985,18.897,16.281,24.187
				c7.813,9.617,13.84,12.934,23.068,21.213c5.043-1.512,12.333-40.188,6.052-45.149
				C691.756,822.807,664.131,795.596,658.967,791.278z"/>
			<polygon style="fill:#A0998D;" points="205.458,822.555 193.353,823.059 139.542,870.142 390.595,851.309 390.595,815.996 			"/>
			<path style="fill:#FFFCF8;" d="M456.011,779.505c0,0,10.443-17.628,25.559-24.214c16.979-7.397,46.361-17.821,117.036,11.435
				c50.774,21.02,60.361,24.551,60.361,24.551l-1.844,41.365c0,0-198.763-11.77-221.629,7.063
				C412.623,858.539,456.011,779.505,456.011,779.505z"/>
			<path style="fill:#BDB7AB;" d="M432.799,849.461c-4.309,0.223-7.958,0.414-11.585,0.536c-0.039,0-0.079,0-0.118,0.01h-0.234
				c-2.342,0.08-4.67,0.131-7.182,0.141c-0.112,0.011-0.212,0.011-0.322,0.011c-4.732,0.019-10.091-0.082-17.215-0.365
				c-44.703-27.068-89.751-12.753-115.016-4.368c-43.695,14.499-84.517,17.586-128.565,17.586c0,0,5.672-4.945,13.41-11.482
				c0.16-0.141,0.332-0.282,0.504-0.424c8.19-6.911,18.561-15.498,27.016-21.934c0.799-0.615,1.585-1.201,2.342-1.766
				c5.529-4.116,9.969-7.042,11.977-7.547c19.4-4.844,48.135-18.261,70.431-24.95c42.355-12.702,96.07-21.46,134.187,9.454
				c9.666,7.839,14.356,18.584,17.302,30.105c0,0,0,0,0,0.011C430.979,839.392,431.921,844.438,432.799,849.461z"/>
			<path style="fill:#DBE234;" d="M138.368,869.468l252.228-18.159c0,0,2.857,4.708,10.931,9.246
				c3.199,1.803,30.436,5.382,48.593,0.841c18.163-4.54,9.587-12.274,9.587-12.274l4.033-1.346l253.24,32.286l-0.504,6.052
				l-247.69-28.249c0,0,0.504,2.522-9.583,7.063c-10.091,4.539-48.255,6.438-63.06,1.007c-3.384-1.242-11.601-8.576-11.601-8.576
				l-246.68,16.648L138.368,869.468z"/>
			<polygon style="fill:#DBE234;" points="138.368,869.468 191.334,822.05 193.353,823.059 141.896,869.972 			"/>
			<polygon style="fill:#DBE234;" points="713.529,885.138 712.946,832.307 717.988,833.148 718.492,884.603 			"/>
			<path style="fill:#BDB7AB;" d="M695.289,875.521c-14.964-2.349-35.374-6.103-53.647-13.428
				c-22.285-8.949-44.453-14.751-67.223-22.216c-73.347-24.052-113.161,9.454-113.373,11.936l-24.808-1.05l-0.405-0.01
				l-14.591-0.616l-0.212-0.01c0.023-0.04,0.046-0.08,0.064-0.12c0.029-0.071,0.06-0.141,0.089-0.213
				c2.543-5.539,5.591-10.754,8.545-15.315c0-0.011,0-0.011,0-0.011c4.873-7.506,9.516-13.186,11.298-15.427
				c3.552-4.479,7.659-8.573,12.321-11.803c8.462-5.861,18.553-8.716,28.219-11.44c57.842-16.294,142.591,38.187,176.239,34.818
				c0.201,0,5.145,5.771,11.431,13.227c0.473,0.565,0.967,1.14,1.45,1.724C680.226,856.907,692.088,871.254,695.289,875.521z"/>
			<path style="fill:#A0998D;" d="M413.679,850.148c-0.112,0.011-0.212,0.011-0.322,0.011c-0.9-1.382-2.11-3.078-3.672-4.975
				c-2.212-2.673-5.139-5.76-8.931-8.889c-3.792-3.117-8.483-6.203-14.022-8.888c-5.539-2.683-11.937-4.924-19.009-6.417
				c-7.062-1.503-14.8-2.249-22.935-2.179c-8.139,0.061-16.676,0.938-25.414,2.482c-1.097,0.191-2.187,0.383-3.299,0.576
				c-1.091,0.23-2.178,0.474-3.28,0.705c-2.197,0.485-4.409,0.9-6.655,1.514c-2.23,0.586-4.562,1.151-6.74,1.746
				c-2.23,0.666-4.469,1.342-6.72,2.018c-8.991,2.876-17.665,6.145-26.111,9.211c-8.456,3.089-16.738,5.802-24.841,7.97
				c-2.017,0.454-4.004,0.899-5.96,1.342c-1,0.222-1.988,0.443-2.967,0.656c-0.979,0.181-1.948,0.374-2.906,0.555
				c-3.852,0.717-7.597,1.372-11.238,1.959c-7.265,1.158-14.087,2.017-20.329,2.54c-6.247,0.525-11.917,0.737-16.889,0.667
				c-1.251-0.009-2.454-0.08-3.604-0.11c-0.585-0.021-1.149-0.041-1.705-0.062c-0.556-0.039-1.098-0.079-1.622-0.12
				c-1.062-0.08-2.081-0.151-3.048-0.232c-0.969-0.111-1.886-0.221-2.753-0.322c-0.983-0.102-1.898-0.233-2.734-0.373
				c0.16-0.141,0.332-0.282,0.504-0.424c0.714,0.07,1.481,0.132,2.288,0.171c0.869,0.049,1.786,0.112,2.743,0.172
				c0.971,0.029,1.979,0.05,3.041,0.07c0.523,0.02,1.066,0.031,1.61,0.041c0.556-0.01,1.122-0.01,1.697-0.021
				c1.141-0.029,2.332-0.02,3.562-0.071c4.931-0.161,10.541-0.626,16.707-1.392c6.155-0.767,12.873-1.866,20.059-3.26
				c3.581-0.686,7.282-1.453,11.097-2.278c0.959-0.203,1.915-0.415,2.873-0.617c0.95-0.242,1.907-0.475,2.867-0.716
				c1.946-0.496,3.925-0.989,5.925-1.483c7.775-2.291,15.908-5.105,24.281-8.282c8.383-3.159,17.091-6.509,26.233-9.434
				c2.309-0.696,4.589-1.372,6.869-2.059c2.35-0.626,4.56-1.15,6.832-1.724c2.218-0.606,4.55-1.019,6.809-1.494
				c1.131-0.232,2.261-0.465,3.382-0.696c1.129-0.182,2.259-0.364,3.38-0.546c8.95-1.471,17.715-2.208,26.069-2.078
				c8.365,0.12,16.304,1.11,23.54,2.896c7.234,1.766,13.74,4.319,19.308,7.306c5.579,2.985,10.23,6.355,13.933,9.716
				c3.716,3.368,6.516,6.647,8.605,9.472C411.711,846.857,412.853,848.685,413.679,850.148z"/>
			<path style="fill:#A0998D;" d="M421.032,850.127c0.023-0.04,0.046-0.08,0.064-0.12h-0.234c-0.29-1.484-0.705-3.208-1.288-5.146
				c-1.06-3.551-2.734-7.799-5.421-12.288c-2.683-4.48-6.386-9.232-11.45-13.389c-5.048-4.156-11.369-7.698-18.655-10.181
				c-7.265-2.491-15.447-3.934-24.113-4.408c-8.668-0.474-17.829-0.041-27.25,1.08c-4.703,0.706-9.514,1.282-14.298,2.29
				c-1.199,0.232-2.411,0.455-3.62,0.687c-1.214,0.221-2.421,0.464-3.654,0.767c-2.442,0.564-4.902,1.129-7.383,1.704
				c-9.778,2.371-19.352,5.085-28.636,7.539c-9.28,2.491-18.321,4.63-27.08,6.243c-2.199,0.374-4.367,0.799-6.495,1.112
				c-2.131,0.271-4.228,0.544-6.296,0.816c-4.216,0.535-8.222,0.878-12.147,1.231c-7.838,0.666-15.165,1.068-21.854,1.149
				c-2.684,0.041-5.265,0.02-7.73-0.039c0.799-0.615,1.585-1.201,2.342-1.766c1.724-0.051,3.5-0.111,5.319-0.212
				c6.626-0.332,13.879-0.978,21.64-1.877c3.863-0.464,7.929-0.928,11.985-1.553c2.068-0.323,4.158-0.645,6.276-0.98
				c2.108-0.353,4.197-0.828,6.346-1.231c8.537-1.765,17.474-4.035,26.684-6.628c9.242-2.553,18.756-5.317,28.746-7.738
				c2.473-0.565,4.944-1.131,7.388-1.695c1.22-0.292,2.45-0.535,3.701-0.757c1.243-0.232,2.481-0.464,3.713-0.687
				c4.913-1.007,9.805-1.553,14.597-2.218c9.634-1.031,19.028-1.313,27.937-0.636c8.91,0.686,17.344,2.389,24.825,5.215
				c7.483,2.796,13.95,6.73,19.034,11.24c5.083,4.518,8.697,9.594,11.24,14.285c2.541,4.732,4.025,9.122,4.913,12.753
				c0.473,1.918,0.797,3.632,1.008,5.106c0.01,0.072,0.021,0.132,0.029,0.203c0.012,0.05,0.021,0.09,0.029,0.141L421.032,850.127z"
				/>
			<path style="fill:#A0998D;" d="M670.689,845.567c-2.218,0.151-4.518,0.273-6.908,0.262c-13.429,0.182-29.432-1.765-46.612-6.134
				c-8.607-2.23-17.474-5.064-26.534-8.221c-9.062-3.149-18.416-6.508-28.028-9.314c-19.362-5.61-38.573-8.334-55.946-7.516
				c-8.688,0.393-16.889,1.685-24.337,3.732c-7.444,2.048-14.143,4.812-19.893,8.011c-11.524,6.447-19.192,14.286-23.497,20.278
				c-1.081,1.494-1.979,2.867-2.695,4.097l-0.405-0.01c0.668-1.323,1.525-2.815,2.583-4.44c4.048-6.275,11.452-14.619,22.997-21.672
				c5.759-3.5,12.547-6.578,20.146-8.908c7.585-2.34,15.989-3.894,24.899-4.49c17.835-1.221,37.552,1.331,57.215,7.031
				c9.908,2.887,19.219,6.306,28.239,9.555c8.998,3.258,17.707,6.205,26.119,8.576c16.858,4.67,32.538,7.083,45.755,7.405
				c1.867,0.08,3.682,0.069,5.45,0.03C669.712,844.407,670.205,844.982,670.689,845.567z"/>
			<g>
				<g>
					<path d="M434.99,818.108c-0.595-4.834-7.143-21.352-28.681-33.437c-26.887-15.089-79.131-23.925-175.324,19.662l-0.313-0.686
						c96.479-43.719,148.966-34.809,176.009-19.634c21.808,12.238,28.449,29.07,29.059,34.002L434.99,818.108z"/>
					<path d="M439.01,809.063c-0.625-5.068-7.232-22.241-28.669-34.269c-26.129-14.662-77.235-23.096-172.322,19.99l-0.311-0.686
						c95.376-43.216,146.722-34.709,173.003-19.961c21.709,12.181,28.412,29.667,29.048,34.832L439.01,809.063z"/>
					<path d="M443.031,799.012c-0.685-5.554-6.944-22.482-27.42-33.969c-24.92-13.983-74.472-21.656-169.049,21.199l-0.311-0.686
						c94.861-42.986,144.66-35.237,169.729-21.171c20.746,11.642,27.1,28.876,27.797,34.534L443.031,799.012z"/>
					<path d="M448.56,791.474c-0.865-7.012-7.431-23.101-26.098-33.805c-23.617-13.543-71.389-21.237-164.85,19.027l-0.299-0.692
						c93.749-40.387,141.759-32.617,165.524-18.989c18.924,10.853,25.59,27.226,26.47,34.365L448.56,791.474z"/>
				</g>
				<g>
					<path d="M652.513,822.571c-5.838,0-22.702-1.732-48.438-12.202c-51.34-20.884-93.033-27.772-123.924-20.477
						c-22.696,5.361-33.561,17.483-36.403,23.801l-0.689-0.308c2.9-6.445,13.939-18.799,36.918-24.227
						c31.044-7.334,72.893-0.432,124.383,20.513c30.023,12.213,47.782,12.488,50.039,12.041l0.147,0.738
						C654.208,822.52,653.528,822.571,652.513,822.571z"/>
				</g>
				<g>
					<path d="M654.024,811.515c-5.842,0-22.704-1.733-48.44-12.201c-51.34-20.884-93.035-27.774-123.928-20.479
						c-22.692,5.361-33.557,17.484-36.399,23.802l-0.691-0.309c2.902-6.443,13.939-18.798,36.92-24.225
						c31.042-7.335,72.891-0.432,124.383,20.513c30.023,12.212,47.78,12.49,50.039,12.04l0.145,0.74
						C655.716,811.463,655.036,811.515,654.024,811.515z"/>
				</g>
				<g>
					<path d="M655.532,800.459c-5.84,0-22.704-1.733-48.44-12.202c-50.197-20.419-89.911-27.778-118.055-21.866
						c-22.599,4.746-31.434,16.691-35.679,22.433l-0.608,0.818l-0.604-0.452l0.608-0.815c4.299-5.815,13.248-17.916,36.127-22.721
						c28.291-5.941,68.155,1.428,118.495,21.904c30.024,12.214,47.78,12.488,50.035,12.042l0.149,0.739
						C657.225,800.406,656.542,800.459,655.532,800.459z"/>
				</g>
				<g>
					<path d="M653.771,793.491c-6.575,0-22.708-1.997-46.193-12.778c-68.095-31.259-106.562-28.757-126.843-21.154
						c-17.028,6.387-21.914,16.336-22.414,17.448l-0.687-0.31c0.513-1.141,5.525-11.352,22.837-17.844
						c20.414-7.657,59.091-10.198,127.422,21.174c28.017,12.864,45.396,13.158,48.514,12.537l0.149,0.738
						C656.028,793.409,655.09,793.491,653.771,793.491z"/>
				</g>
			</g>
		</g>
	</g>
</g>
</svg>
